<svg xmlns="http://www.w3.org/2000/svg" xmlns:xlink="http://www.w3.org/1999/xlink" width="523" zoomAndPan="magnify" viewBox="0 0 392.25 320.250004" height="427" preserveAspectRatio="xMidYMid meet" version="1.0"><defs><g/><clipPath id="338f0abd4c"><path d="M 307 87.664062 L 316 87.664062 L 316 105 L 307 105 Z M 307 87.664062 " clip-rule="nonzero"/></clipPath><clipPath id="1a4e77a453"><path d="M 315 87.664062 L 323 87.664062 L 323 105 L 315 105 Z M 315 87.664062 " clip-rule="nonzero"/></clipPath><clipPath id="e63b99ff0c"><path d="M 323 87.664062 L 330 87.664062 L 330 105 L 323 105 Z M 323 87.664062 " clip-rule="nonzero"/></clipPath><clipPath id="ff379263ea"><path d="M 329 87.664062 L 338 87.664062 L 338 105 L 329 105 Z M 329 87.664062 " clip-rule="nonzero"/></clipPath><clipPath id="eb6cb503ee"><path d="M 335 87.664062 L 346 87.664062 L 346 105 L 335 105 Z M 335 87.664062 " clip-rule="nonzero"/></clipPath><clipPath id="a2a42669dd"><path d="M 342 87.664062 L 353 87.664062 L 353 105 L 342 105 Z M 342 87.664062 " clip-rule="nonzero"/></clipPath><clipPath id="9357687f68"><path d="M 348 87.664062 L 361 87.664062 L 361 105 L 348 105 Z M 348 87.664062 " clip-rule="nonzero"/></clipPath><clipPath id="292668155a"><path d="M 355 87.664062 L 368.292969 87.664062 L 368.292969 105 L 355 105 Z M 355 87.664062 " clip-rule="nonzero"/></clipPath><clipPath id="37576522ef"><path d="M 277 87.664062 L 291 87.664062 L 291 105 L 277 105 Z M 277 87.664062 " clip-rule="nonzero"/></clipPath><clipPath id="cae178c83e"><path d="M 284 87.664062 L 297 87.664062 L 297 105 L 284 105 Z M 284 87.664062 " clip-rule="nonzero"/></clipPath><clipPath id="cd3da409ab"><path d="M 292 87.664062 L 303 87.664062 L 303 105 L 292 105 Z M 292 87.664062 " clip-rule="nonzero"/></clipPath><clipPath id="16067911f2"><path d="M 300 87.664062 L 310 87.664062 L 310 105 L 300 105 Z M 300 87.664062 " clip-rule="nonzero"/></clipPath><clipPath id="061e7a3d36"><path d="M 361 105 L 368.292969 105 L 368.292969 112.800781 L 361 112.800781 Z M 361 105 " clip-rule="nonzero"/></clipPath><clipPath id="23473d958b"><path d="M 307 105 L 315 105 L 315 112.800781 L 307 112.800781 Z M 307 105 " clip-rule="nonzero"/></clipPath><clipPath id="e20aa3d57e"><path d="M 315 105 L 322 105 L 322 112.800781 L 315 112.800781 Z M 315 105 " clip-rule="nonzero"/></clipPath><clipPath id="3834fd35a1"><path d="M 323 105 L 330 105 L 330 112.800781 L 323 112.800781 Z M 323 105 " clip-rule="nonzero"/></clipPath><clipPath id="3b888ea7e2"><path d="M 330 105 L 338 105 L 338 112.800781 L 330 112.800781 Z M 330 105 " clip-rule="nonzero"/></clipPath><clipPath id="80d805edb1"><path d="M 338 105 L 346 105 L 346 112.800781 L 338 112.800781 Z M 338 105 " clip-rule="nonzero"/></clipPath><clipPath id="a843931f6a"><path d="M 277 105 L 284 105 L 284 112.800781 L 277 112.800781 Z M 277 105 " clip-rule="nonzero"/></clipPath><clipPath id="4df1c2f664"><path d="M 346 105 L 353 105 L 353 112.800781 L 346 112.800781 Z M 346 105 " clip-rule="nonzero"/></clipPath><clipPath id="722652d5e9"><path d="M 353 105 L 361 105 L 361 112.800781 L 353 112.800781 Z M 353 105 " clip-rule="nonzero"/></clipPath><clipPath id="0df8428cb0"><path d="M 284 105 L 292 105 L 292 112.800781 L 284 112.800781 Z M 284 105 " clip-rule="nonzero"/></clipPath><clipPath id="d500c6e3c0"><path d="M 292 105 L 299 105 L 299 112.800781 L 292 112.800781 Z M 292 105 " clip-rule="nonzero"/></clipPath><clipPath id="e661d07d39"><path d="M 300 105 L 307 105 L 307 112.800781 L 300 112.800781 Z M 300 105 " clip-rule="nonzero"/></clipPath></defs><path fill="#3f5965" d="M 233.078125 298.710938 C 237.070312 297.527344 240.957031 296.160156 244.746094 294.640625 C 179.253906 307.597656 113.460938 268.789062 94.074219 203.507812 C 74.6875 138.230469 108.636719 69.800781 170.585938 44.914062 C 166.582031 45.703125 162.582031 46.679688 158.589844 47.867188 C 89.320312 68.4375 49.839844 141.265625 70.410156 210.535156 C 90.980469 279.804688 163.808594 319.28125 233.078125 298.710938 " fill-opacity="1" fill-rule="nonzero"/><path fill="#289db9" d="M 70.96875 265.503906 C 74.445312 268.230469 78.007812 270.75 81.644531 273.089844 C 30.277344 224.433594 23.46875 143.761719 68 86.964844 C 112.53125 30.171875 192.5 17.539062 252.007812 55.824219 C 248.867188 52.847656 245.570312 49.984375 242.097656 47.261719 C 181.832031 0.0078125 94.667969 10.554688 47.410156 70.820312 C 0.15625 131.085938 10.703125 218.25 70.96875 265.503906 " fill-opacity="1" fill-rule="nonzero"/><path fill="#289db9" d="M 199.917969 259.171875 C 164.179688 249.5625 134.785156 228.136719 114.792969 200.234375 C 130.554688 235.03125 161.1875 262.761719 200.957031 273.449219 C 252.910156 287.417969 305.949219 268.40625 337.867188 229.238281 C 300.753906 259.824219 249.898438 272.605469 199.917969 259.171875 " fill-opacity="1" fill-rule="nonzero"/><g fill="#3f5965" fill-opacity="1"><g transform="translate(144.7437, 181.076153)"><g><path d="M 50.640625 -47.40625 L 33.765625 -47.40625 L 25.5625 0 L 14.109375 0 L 22.3125 -47.40625 L 5.625 -47.40625 L 7.3125 -56.890625 L 52.328125 -56.890625 Z M 50.640625 -47.40625 "/></g></g></g><g fill="#3f5965" fill-opacity="1"><g transform="translate(189.39758, 181.076153)"><g><path d="M 24.3125 -43.0625 C 28.03125 -43.007812 31.238281 -42.050781 33.9375 -40.1875 C 36.632812 -38.320312 38.613281 -35.753906 39.875 -32.484375 C 41.144531 -29.222656 41.597656 -25.597656 41.234375 -21.609375 C 40.628906 -14.890625 38.285156 -9.453125 34.203125 -5.296875 C 30.128906 -1.140625 25.097656 0.882812 19.109375 0.78125 C 15.429688 0.726562 12.25 -0.210938 9.5625 -2.046875 C 6.882812 -3.890625 4.90625 -6.4375 3.625 -9.6875 C 2.351562 -12.945312 1.898438 -16.546875 2.265625 -20.484375 C 2.941406 -27.460938 5.3125 -33.007812 9.375 -37.125 C 13.4375 -41.238281 18.414062 -43.21875 24.3125 -43.0625 Z M 13.171875 -16.453125 C 13.222656 -13.953125 13.804688 -11.976562 14.921875 -10.53125 C 16.046875 -9.082031 17.625 -8.332031 19.65625 -8.28125 C 23.039062 -8.175781 25.695312 -9.734375 27.625 -12.953125 C 29.550781 -16.171875 30.453125 -20.398438 30.328125 -25.640625 C 30.222656 -28.140625 29.613281 -30.132812 28.5 -31.625 C 27.394531 -33.125 25.816406 -33.898438 23.765625 -33.953125 C 20.472656 -34.054688 17.84375 -32.515625 15.875 -29.328125 C 13.914062 -26.140625 13.015625 -21.847656 13.171875 -16.453125 Z M 13.171875 -16.453125 "/></g></g></g><g fill="#3f5965" fill-opacity="1"><g transform="translate(229.909313, 181.076153)"><g><path d="M 11.765625 0 L 0.671875 0 L 11.09375 -60.03125 L 22.15625 -60.03125 Z M 11.765625 0 "/></g></g></g><g fill="#3f5965" fill-opacity="1"><g transform="translate(247.131234, 181.076153)"><g><path d="M 21.109375 -43.109375 C 25.035156 -43.003906 28.210938 -41.425781 30.640625 -38.375 L 34.78125 -60.03125 L 45.84375 -60.03125 L 35.4375 0 L 25.59375 0 L 26.21875 -4.53125 C 23.070312 -0.851562 19.398438 0.929688 15.203125 0.828125 C 12.566406 0.796875 10.257812 0.101562 8.28125 -1.25 C 6.300781 -2.601562 4.769531 -4.550781 3.6875 -7.09375 C 2.613281 -9.632812 2.023438 -12.46875 1.921875 -15.59375 C 1.835938 -17.226562 1.875 -18.816406 2.03125 -20.359375 L 2.265625 -22.125 C 2.890625 -26.445312 4.09375 -30.25 5.875 -33.53125 C 7.664062 -36.8125 9.851562 -39.242188 12.4375 -40.828125 C 15.03125 -42.421875 17.921875 -43.179688 21.109375 -43.109375 Z M 13.09375 -20.359375 C 12.882812 -18.378906 12.816406 -16.710938 12.890625 -15.359375 C 13.148438 -10.773438 15 -8.441406 18.4375 -8.359375 C 21.539062 -8.234375 24.238281 -9.691406 26.53125 -12.734375 L 29.546875 -29.546875 C 28.523438 -32.328125 26.492188 -33.785156 23.453125 -33.921875 C 20.765625 -33.992188 18.523438 -32.957031 16.734375 -30.8125 C 14.953125 -28.664062 13.738281 -25.179688 13.09375 -20.359375 Z M 13.09375 -20.359375 "/></g></g></g><g fill="#3f5965" fill-opacity="1"><g transform="translate(287.486662, 181.076153)"><g><path d="M 24.3125 -43.0625 C 28.03125 -43.007812 31.238281 -42.050781 33.9375 -40.1875 C 36.632812 -38.320312 38.613281 -35.753906 39.875 -32.484375 C 41.144531 -29.222656 41.597656 -25.597656 41.234375 -21.609375 C 40.628906 -14.890625 38.285156 -9.453125 34.203125 -5.296875 C 30.128906 -1.140625 25.097656 0.882812 19.109375 0.78125 C 15.429688 0.726562 12.25 -0.210938 9.5625 -2.046875 C 6.882812 -3.890625 4.90625 -6.4375 3.625 -9.6875 C 2.351562 -12.945312 1.898438 -16.546875 2.265625 -20.484375 C 2.941406 -27.460938 5.3125 -33.007812 9.375 -37.125 C 13.4375 -41.238281 18.414062 -43.21875 24.3125 -43.0625 Z M 13.171875 -16.453125 C 13.222656 -13.953125 13.804688 -11.976562 14.921875 -10.53125 C 16.046875 -9.082031 17.625 -8.332031 19.65625 -8.28125 C 23.039062 -8.175781 25.695312 -9.734375 27.625 -12.953125 C 29.550781 -16.171875 30.453125 -20.398438 30.328125 -25.640625 C 30.222656 -28.140625 29.613281 -30.132812 28.5 -31.625 C 27.394531 -33.125 25.816406 -33.898438 23.765625 -33.953125 C 20.472656 -34.054688 17.84375 -32.515625 15.875 -29.328125 C 13.914062 -26.140625 13.015625 -21.847656 13.171875 -16.453125 Z M 13.171875 -16.453125 "/></g></g></g><g fill="#3f5965" fill-opacity="1"><g transform="translate(327.998399, 181.076153)"><g><path d="M 24.625 -11.921875 C 25.039062 -14.003906 23.59375 -15.515625 20.28125 -16.453125 L 16.71875 -17.34375 C 8.3125 -19.664062 4.222656 -23.757812 4.453125 -29.625 C 4.585938 -33.601562 6.351562 -36.847656 9.75 -39.359375 C 13.144531 -41.878906 17.242188 -43.113281 22.046875 -43.0625 C 26.804688 -43.007812 30.65625 -41.742188 33.59375 -39.265625 C 36.539062 -36.796875 38.039062 -33.503906 38.09375 -29.390625 L 27.15625 -29.421875 C 27.207031 -33.046875 25.410156 -34.882812 21.765625 -34.9375 C 20.046875 -34.9375 18.550781 -34.503906 17.28125 -33.640625 C 16.019531 -32.785156 15.25 -31.628906 14.96875 -30.171875 C 14.570312 -28.085938 16.144531 -26.613281 19.6875 -25.75 L 21.265625 -25.40625 C 24.859375 -24.539062 27.601562 -23.554688 29.5 -22.453125 C 31.40625 -21.347656 32.867188 -19.972656 33.890625 -18.328125 C 34.921875 -16.679688 35.398438 -14.710938 35.328125 -12.421875 C 35.242188 -9.742188 34.375 -7.398438 32.71875 -5.390625 C 31.070312 -3.390625 28.804688 -1.835938 25.921875 -0.734375 C 23.046875 0.359375 20.019531 0.863281 16.84375 0.78125 C 12.15625 0.726562 8.25 -0.617188 5.125 -3.265625 C 2 -5.910156 0.410156 -9.328125 0.359375 -13.515625 L 10.75 -13.4375 C 10.851562 -9.40625 13.015625 -7.363281 17.234375 -7.3125 C 19.265625 -7.3125 20.9375 -7.726562 22.25 -8.5625 C 23.570312 -9.394531 24.363281 -10.515625 24.625 -11.921875 Z M 24.625 -11.921875 "/></g></g></g><g fill="#289db9" fill-opacity="1"><g transform="translate(158.05969, 215.915946)"><g><path d="M 0.390625 0 L 4.3125 -18.46875 L 9.453125 -18.46875 C 10.242188 -18.46875 11.054688 -18.414062 11.890625 -18.3125 C 12.734375 -18.207031 13.507812 -17.992188 14.21875 -17.671875 C 14.925781 -17.347656 15.5 -16.875 15.9375 -16.25 C 16.382812 -15.625 16.609375 -14.785156 16.609375 -13.734375 C 16.609375 -12.128906 16.242188 -10.859375 15.515625 -9.921875 C 14.785156 -8.984375 13.769531 -8.316406 12.46875 -7.921875 C 11.175781 -7.523438 9.664062 -7.328125 7.9375 -7.328125 L 4.59375 -7.328125 L 3.046875 0 Z M 5.078125 -9.5625 L 8.59375 -9.5625 C 9.6875 -9.5625 10.628906 -9.679688 11.421875 -9.921875 C 12.210938 -10.160156 12.820312 -10.566406 13.25 -11.140625 C 13.6875 -11.710938 13.90625 -12.492188 13.90625 -13.484375 C 13.90625 -14.585938 13.519531 -15.320312 12.75 -15.6875 C 11.988281 -16.0625 10.972656 -16.25 9.703125 -16.25 L 6.5 -16.25 Z M 5.078125 -9.5625 "/></g></g></g><g fill="#289db9" fill-opacity="1"><g transform="translate(174.557769, 215.915946)"><g><path d="M 4.25 0.328125 C 3.070312 0.328125 2.09375 0.00390625 1.3125 -0.640625 C 0.53125 -1.285156 0.140625 -2.148438 0.140625 -3.234375 C 0.140625 -4.148438 0.382812 -4.910156 0.875 -5.515625 C 1.363281 -6.128906 2 -6.617188 2.78125 -6.984375 C 3.5625 -7.359375 4.40625 -7.640625 5.3125 -7.828125 C 6.226562 -8.023438 7.117188 -8.171875 7.984375 -8.265625 C 8.847656 -8.359375 9.597656 -8.441406 10.234375 -8.515625 C 10.285156 -8.773438 10.328125 -9.015625 10.359375 -9.234375 C 10.398438 -9.453125 10.421875 -9.664062 10.421875 -9.875 C 10.421875 -11.320312 9.570312 -12.046875 7.875 -12.046875 C 7.03125 -12.046875 6.3125 -11.859375 5.71875 -11.484375 C 5.132812 -11.109375 4.6875 -10.585938 4.375 -9.921875 L 2.296875 -10.5625 C 2.773438 -11.59375 3.472656 -12.410156 4.390625 -13.015625 C 5.316406 -13.628906 6.441406 -13.9375 7.765625 -13.9375 C 9.367188 -13.9375 10.601562 -13.613281 11.46875 -12.96875 C 12.332031 -12.320312 12.765625 -11.328125 12.765625 -9.984375 C 12.765625 -9.671875 12.738281 -9.351562 12.6875 -9.03125 C 12.644531 -8.71875 12.5625 -8.273438 12.4375 -7.703125 C 12.320312 -7.140625 12.144531 -6.304688 11.90625 -5.203125 C 11.664062 -4.054688 11.503906 -3.0625 11.421875 -2.21875 C 11.347656 -1.382812 11.300781 -0.644531 11.28125 0 L 9.09375 0 L 8.984375 -1.734375 C 8.378906 -1.054688 7.710938 -0.539062 6.984375 -0.1875 C 6.253906 0.15625 5.34375 0.328125 4.25 0.328125 Z M 5 -1.578125 C 6.25 -1.578125 7.320312 -1.992188 8.21875 -2.828125 C 9.113281 -3.671875 9.679688 -4.789062 9.921875 -6.1875 L 10 -6.65625 C 8.476562 -6.507812 7.171875 -6.335938 6.078125 -6.140625 C 4.992188 -5.953125 4.164062 -5.65625 3.59375 -5.25 C 3.019531 -4.84375 2.734375 -4.242188 2.734375 -3.453125 C 2.734375 -2.828125 2.953125 -2.359375 3.390625 -2.046875 C 3.835938 -1.734375 4.375 -1.578125 5 -1.578125 Z M 5 -1.578125 "/></g></g></g><g fill="#289db9" fill-opacity="1"><g transform="translate(188.955587, 215.915946)"><g><path d="M 6.140625 0.328125 C 4.421875 0.328125 3.085938 -0.175781 2.140625 -1.1875 C 1.191406 -2.195312 0.71875 -3.570312 0.71875 -5.3125 C 0.71875 -6.875 1.023438 -8.300781 1.640625 -9.59375 C 2.265625 -10.894531 3.140625 -11.941406 4.265625 -12.734375 C 5.398438 -13.535156 6.722656 -13.9375 8.234375 -13.9375 C 9.484375 -13.9375 10.53125 -13.671875 11.375 -13.140625 C 12.226562 -12.617188 12.882812 -11.859375 13.34375 -10.859375 L 11.0625 -10.0625 C 10.875 -10.613281 10.507812 -11.054688 9.96875 -11.390625 C 9.4375 -11.722656 8.820312 -11.890625 8.125 -11.890625 C 7.070312 -11.890625 6.1875 -11.582031 5.46875 -10.96875 C 4.75 -10.363281 4.203125 -9.570312 3.828125 -8.59375 C 3.453125 -7.613281 3.265625 -6.5625 3.265625 -5.4375 C 3.265625 -4.394531 3.515625 -3.515625 4.015625 -2.796875 C 4.523438 -2.078125 5.40625 -1.71875 6.65625 -1.71875 C 7.414062 -1.71875 8.078125 -1.878906 8.640625 -2.203125 C 9.203125 -2.523438 9.6875 -2.960938 10.09375 -3.515625 L 12.046875 -2.734375 C 11.421875 -1.722656 10.585938 -0.957031 9.546875 -0.4375 C 8.503906 0.0703125 7.367188 0.328125 6.140625 0.328125 Z M 6.140625 0.328125 "/></g></g></g><g fill="#289db9" fill-opacity="1"><g transform="translate(202.634897, 215.915946)"><g><path d="M 6.328125 -16.328125 C 5.867188 -16.328125 5.46875 -16.5 5.125 -16.84375 C 4.78125 -17.1875 4.609375 -17.585938 4.609375 -18.046875 C 4.609375 -18.523438 4.78125 -18.9375 5.125 -19.28125 C 5.46875 -19.625 5.867188 -19.796875 6.328125 -19.796875 C 6.804688 -19.796875 7.21875 -19.625 7.5625 -19.28125 C 7.90625 -18.9375 8.078125 -18.523438 8.078125 -18.046875 C 8.078125 -17.585938 7.90625 -17.1875 7.5625 -16.84375 C 7.21875 -16.5 6.804688 -16.328125 6.328125 -16.328125 Z M 1.265625 0 L 3.78125 -11.828125 L 1.578125 -11.828125 L 1.96875 -13.703125 L 6.546875 -13.703125 L 3.65625 0 Z M 1.265625 0 "/></g></g></g><g fill="#289db9" fill-opacity="1"><g transform="translate(210.096339, 215.915946)"><g><path d="M 1.015625 0 L 3.53125 -11.828125 L 1.21875 -11.828125 L 1.625 -13.703125 L 3.921875 -13.703125 L 4.25 -15.171875 C 4.476562 -16.109375 4.710938 -16.863281 4.953125 -17.4375 C 5.191406 -18.007812 5.472656 -18.441406 5.796875 -18.734375 C 6.128906 -19.035156 6.546875 -19.234375 7.046875 -19.328125 C 7.546875 -19.429688 8.171875 -19.492188 8.921875 -19.515625 L 10.34375 -19.515625 L 9.921875 -17.546875 L 9.265625 -17.546875 C 8.816406 -17.546875 8.425781 -17.507812 8.09375 -17.4375 C 7.757812 -17.363281 7.484375 -17.1875 7.265625 -16.90625 C 7.046875 -16.632812 6.863281 -16.1875 6.71875 -15.5625 L 6.296875 -13.703125 L 9.125 -13.703125 L 8.703125 -11.828125 L 5.921875 -11.828125 L 3.40625 0 Z M 1.015625 0 "/></g></g></g><g fill="#289db9" fill-opacity="1"><g transform="translate(218.939533, 215.915946)"><g><path d="M 6.328125 -16.328125 C 5.867188 -16.328125 5.46875 -16.5 5.125 -16.84375 C 4.78125 -17.1875 4.609375 -17.585938 4.609375 -18.046875 C 4.609375 -18.523438 4.78125 -18.9375 5.125 -19.28125 C 5.46875 -19.625 5.867188 -19.796875 6.328125 -19.796875 C 6.804688 -19.796875 7.21875 -19.625 7.5625 -19.28125 C 7.90625 -18.9375 8.078125 -18.523438 8.078125 -18.046875 C 8.078125 -17.585938 7.90625 -17.1875 7.5625 -16.84375 C 7.21875 -16.5 6.804688 -16.328125 6.328125 -16.328125 Z M 1.265625 0 L 3.78125 -11.828125 L 1.578125 -11.828125 L 1.96875 -13.703125 L 6.546875 -13.703125 L 3.65625 0 Z M 1.265625 0 "/></g></g></g><g fill="#289db9" fill-opacity="1"><g transform="translate(226.400974, 215.915946)"><g><path d="M 6.140625 0.328125 C 4.421875 0.328125 3.085938 -0.175781 2.140625 -1.1875 C 1.191406 -2.195312 0.71875 -3.570312 0.71875 -5.3125 C 0.71875 -6.875 1.023438 -8.300781 1.640625 -9.59375 C 2.265625 -10.894531 3.140625 -11.941406 4.265625 -12.734375 C 5.398438 -13.535156 6.722656 -13.9375 8.234375 -13.9375 C 9.484375 -13.9375 10.53125 -13.671875 11.375 -13.140625 C 12.226562 -12.617188 12.882812 -11.859375 13.34375 -10.859375 L 11.0625 -10.0625 C 10.875 -10.613281 10.507812 -11.054688 9.96875 -11.390625 C 9.4375 -11.722656 8.820312 -11.890625 8.125 -11.890625 C 7.070312 -11.890625 6.1875 -11.582031 5.46875 -10.96875 C 4.75 -10.363281 4.203125 -9.570312 3.828125 -8.59375 C 3.453125 -7.613281 3.265625 -6.5625 3.265625 -5.4375 C 3.265625 -4.394531 3.515625 -3.515625 4.015625 -2.796875 C 4.523438 -2.078125 5.40625 -1.71875 6.65625 -1.71875 C 7.414062 -1.71875 8.078125 -1.878906 8.640625 -2.203125 C 9.203125 -2.523438 9.6875 -2.960938 10.09375 -3.515625 L 12.046875 -2.734375 C 11.421875 -1.722656 10.585938 -0.957031 9.546875 -0.4375 C 8.503906 0.0703125 7.367188 0.328125 6.140625 0.328125 Z M 6.140625 0.328125 "/></g></g></g><g fill="#289db9" fill-opacity="1"><g transform="translate(240.080284, 215.915946)"><g><path d="M 6.359375 0.328125 C 4.515625 0.328125 3.117188 -0.210938 2.171875 -1.296875 C 1.222656 -2.390625 0.75 -3.789062 0.75 -5.5 C 0.75 -7.101562 1.070312 -8.539062 1.71875 -9.8125 C 2.363281 -11.082031 3.257812 -12.085938 4.40625 -12.828125 C 5.5625 -13.566406 6.882812 -13.9375 8.375 -13.9375 C 9.3125 -13.9375 10.195312 -13.734375 11.03125 -13.328125 C 11.875 -12.921875 12.554688 -12.296875 13.078125 -11.453125 C 13.609375 -10.617188 13.875 -9.546875 13.875 -8.234375 C 13.875 -7.078125 13.6875 -5.984375 13.3125 -4.953125 C 12.945312 -3.921875 12.429688 -3.003906 11.765625 -2.203125 C 11.109375 -1.410156 10.316406 -0.789062 9.390625 -0.34375 C 8.472656 0.101562 7.460938 0.328125 6.359375 0.328125 Z M 6.546875 -1.71875 C 7.617188 -1.71875 8.515625 -2.039062 9.234375 -2.6875 C 9.953125 -3.332031 10.492188 -4.15625 10.859375 -5.15625 C 11.234375 -6.15625 11.421875 -7.207031 11.421875 -8.3125 C 11.421875 -9.664062 11.09375 -10.597656 10.4375 -11.109375 C 9.78125 -11.628906 8.972656 -11.890625 8.015625 -11.890625 C 6.929688 -11.890625 6.03125 -11.570312 5.3125 -10.9375 C 4.59375 -10.3125 4.054688 -9.507812 3.703125 -8.53125 C 3.347656 -7.5625 3.171875 -6.539062 3.171875 -5.46875 C 3.171875 -4.34375 3.457031 -3.4375 4.03125 -2.75 C 4.601562 -2.0625 5.441406 -1.71875 6.546875 -1.71875 Z M 6.546875 -1.71875 "/></g></g></g><g clip-path="url(#338f0abd4c)"><path fill="#3f5965" d="M 310.367188 87.667969 L 307.878906 104.410156 L 314.28125 104.410156 L 315.6875 87.667969 L 310.367188 87.667969 " fill-opacity="1" fill-rule="nonzero"/></g><g clip-path="url(#1a4e77a453)"><path fill="#3f5965" d="M 316.75 87.667969 L 315.5625 104.410156 L 321.960938 104.410156 L 322.070312 87.667969 L 316.75 87.667969 " fill-opacity="1" fill-rule="nonzero"/></g><g clip-path="url(#e63b99ff0c)"><path fill="#3f5965" d="M 323.132812 87.667969 L 323.242188 104.410156 L 329.640625 104.410156 L 328.453125 87.667969 L 323.132812 87.667969 " fill-opacity="1" fill-rule="nonzero"/></g><g clip-path="url(#ff379263ea)"><path fill="#3f5965" d="M 329.515625 87.667969 L 330.921875 104.410156 L 337.324219 104.410156 L 334.835938 87.667969 L 329.515625 87.667969 " fill-opacity="1" fill-rule="nonzero"/></g><g clip-path="url(#eb6cb503ee)"><path fill="#3f5965" d="M 335.898438 87.667969 L 338.601562 104.410156 L 345.003906 104.410156 L 341.214844 87.667969 L 335.898438 87.667969 " fill-opacity="1" fill-rule="nonzero"/></g><g clip-path="url(#a2a42669dd)"><path fill="#3f5965" d="M 342.28125 87.667969 L 346.28125 104.410156 L 352.683594 104.410156 L 347.597656 87.667969 L 342.28125 87.667969 " fill-opacity="1" fill-rule="nonzero"/></g><g clip-path="url(#9357687f68)"><path fill="#3f5965" d="M 348.664062 87.667969 L 353.964844 104.410156 L 360.363281 104.410156 L 353.980469 87.667969 L 348.664062 87.667969 " fill-opacity="1" fill-rule="nonzero"/></g><g clip-path="url(#292668155a)"><path fill="#3f5965" d="M 359.214844 87.667969 L 355.046875 87.667969 L 361.644531 104.410156 L 368.042969 104.410156 L 360.84375 88.710938 C 360.550781 88.074219 359.914062 87.667969 359.214844 87.667969 " fill-opacity="1" fill-rule="nonzero"/></g><g clip-path="url(#37576522ef)"><path fill="#3f5965" d="M 284.359375 88.710938 L 277.15625 104.410156 L 283.558594 104.410156 L 290.15625 87.667969 L 285.988281 87.667969 C 285.289062 87.667969 284.652344 88.074219 284.359375 88.710938 " fill-opacity="1" fill-rule="nonzero"/></g><g clip-path="url(#cae178c83e)"><path fill="#3f5965" d="M 291.222656 87.667969 L 284.839844 104.410156 L 291.238281 104.410156 L 296.539062 87.667969 L 291.222656 87.667969 " fill-opacity="1" fill-rule="nonzero"/></g><g clip-path="url(#cd3da409ab)"><path fill="#3f5965" d="M 297.605469 87.667969 L 292.519531 104.410156 L 298.917969 104.410156 L 302.921875 87.667969 L 297.605469 87.667969 " fill-opacity="1" fill-rule="nonzero"/></g><g clip-path="url(#16067911f2)"><path fill="#3f5965" d="M 303.984375 87.667969 L 300.199219 104.410156 L 306.601562 104.410156 L 309.304688 87.667969 L 303.984375 87.667969 " fill-opacity="1" fill-rule="nonzero"/></g><g clip-path="url(#061e7a3d36)"><path fill="#3f5965" d="M 361.644531 105.179688 L 361.644531 109.144531 C 361.644531 110.914062 363.078125 112.347656 364.84375 112.347656 C 364.886719 112.347656 364.929688 112.34375 364.972656 112.339844 C 365.644531 112.3125 366.261719 112.082031 366.765625 111.703125 C 367.539062 111.117188 368.042969 110.191406 368.042969 109.144531 L 368.042969 105.179688 L 361.644531 105.179688 " fill-opacity="1" fill-rule="nonzero"/></g><g clip-path="url(#23473d958b)"><path fill="#3f5965" d="M 307.878906 109.144531 C 307.878906 110.914062 309.3125 112.347656 311.082031 112.347656 C 312.847656 112.347656 314.28125 110.914062 314.28125 109.144531 L 314.28125 105.179688 L 307.878906 105.179688 L 307.878906 109.144531 " fill-opacity="1" fill-rule="nonzero"/></g><g clip-path="url(#e20aa3d57e)"><path fill="#3f5965" d="M 315.5625 109.144531 C 315.5625 110.914062 316.992188 112.347656 318.761719 112.347656 C 320.527344 112.347656 321.960938 110.914062 321.960938 109.144531 L 321.960938 105.179688 L 315.5625 105.179688 L 315.5625 109.144531 " fill-opacity="1" fill-rule="nonzero"/></g><g clip-path="url(#3834fd35a1)"><path fill="#3f5965" d="M 323.242188 109.144531 C 323.242188 110.914062 324.675781 112.347656 326.441406 112.347656 C 328.207031 112.347656 329.640625 110.914062 329.640625 109.144531 L 329.640625 105.179688 L 323.242188 105.179688 L 323.242188 109.144531 " fill-opacity="1" fill-rule="nonzero"/></g><g clip-path="url(#3b888ea7e2)"><path fill="#3f5965" d="M 330.921875 109.144531 C 330.921875 110.914062 332.355469 112.347656 334.121094 112.347656 C 335.890625 112.347656 337.324219 110.914062 337.324219 109.144531 L 337.324219 105.179688 L 330.921875 105.179688 L 330.921875 109.144531 " fill-opacity="1" fill-rule="nonzero"/></g><g clip-path="url(#80d805edb1)"><path fill="#3f5965" d="M 338.601562 109.144531 C 338.601562 110.914062 340.035156 112.347656 341.800781 112.347656 C 343.570312 112.347656 345.003906 110.914062 345.003906 109.144531 L 345.003906 105.179688 L 338.601562 105.179688 L 338.601562 109.144531 " fill-opacity="1" fill-rule="nonzero"/></g><g clip-path="url(#a843931f6a)"><path fill="#3f5965" d="M 277.15625 105.179688 L 277.15625 109.144531 C 277.15625 110.191406 277.664062 111.117188 278.4375 111.703125 C 278.941406 112.082031 279.558594 112.3125 280.230469 112.339844 C 280.273438 112.34375 280.316406 112.347656 280.359375 112.347656 C 282.125 112.347656 283.558594 110.914062 283.558594 109.144531 L 283.558594 105.179688 L 277.15625 105.179688 " fill-opacity="1" fill-rule="nonzero"/></g><g clip-path="url(#4df1c2f664)"><path fill="#3f5965" d="M 346.28125 109.144531 C 346.28125 110.914062 347.714844 112.347656 349.484375 112.347656 C 351.25 112.347656 352.683594 110.914062 352.683594 109.144531 L 352.683594 105.179688 L 346.28125 105.179688 L 346.28125 109.144531 " fill-opacity="1" fill-rule="nonzero"/></g><g clip-path="url(#722652d5e9)"><path fill="#3f5965" d="M 353.964844 109.144531 C 353.964844 110.914062 355.394531 112.347656 357.164062 112.347656 C 358.929688 112.347656 360.363281 110.914062 360.363281 109.144531 L 360.363281 105.179688 L 353.964844 105.179688 L 353.964844 109.144531 " fill-opacity="1" fill-rule="nonzero"/></g><g clip-path="url(#0df8428cb0)"><path fill="#3f5965" d="M 284.839844 109.144531 C 284.839844 110.914062 286.269531 112.347656 288.039062 112.347656 C 289.804688 112.347656 291.238281 110.914062 291.238281 109.144531 L 291.238281 105.179688 L 284.839844 105.179688 L 284.839844 109.144531 " fill-opacity="1" fill-rule="nonzero"/></g><g clip-path="url(#d500c6e3c0)"><path fill="#3f5965" d="M 292.519531 109.144531 C 292.519531 110.914062 293.953125 112.347656 295.71875 112.347656 C 297.488281 112.347656 298.917969 110.914062 298.917969 109.144531 L 298.917969 105.179688 L 292.519531 105.179688 L 292.519531 109.144531 " fill-opacity="1" fill-rule="nonzero"/></g><g clip-path="url(#e661d07d39)"><path fill="#3f5965" d="M 300.199219 109.144531 C 300.199219 110.914062 301.632812 112.347656 303.398438 112.347656 C 305.167969 112.347656 306.601562 110.914062 306.601562 109.144531 L 306.601562 105.179688 L 300.199219 105.179688 L 300.199219 109.144531 " fill-opacity="1" fill-rule="nonzero"/></g></svg>