<svg xmlns="http://www.w3.org/2000/svg" xmlns:xlink="http://www.w3.org/1999/xlink" width="418" zoomAndPan="magnify" viewBox="0 0 313.5 307.499996" height="410" preserveAspectRatio="xMidYMid meet" version="1.0"><defs><g/><clipPath id="9153fee171"><path d="M 1.375 0 L 307.964844 0 L 307.964844 306.589844 L 1.375 306.589844 Z M 1.375 0 " clip-rule="nonzero"/></clipPath><clipPath id="cd61d81716"><path d="M 154.667969 0 C 70.007812 0 1.375 68.632812 1.375 153.296875 C 1.375 237.957031 70.007812 306.589844 154.667969 306.589844 C 239.332031 306.589844 307.964844 237.957031 307.964844 153.296875 C 307.964844 68.632812 239.332031 0 154.667969 0 Z M 154.667969 0 " clip-rule="nonzero"/></clipPath><radialGradient gradientTransform="matrix(1, 0, 0, 1, 1.374161, 0)" gradientUnits="userSpaceOnUse" r="433.584397" cx="0" id="30379d5746" cy="0" fx="0" fy="0"><stop stop-opacity="1" stop-color="rgb(16.212463%, 49.942017%, 72.360229%)" offset="0"/><stop stop-opacity="1" stop-color="rgb(16.410828%, 50.193787%, 72.642517%)" offset="0.015625"/><stop stop-opacity="1" stop-color="rgb(16.5802%, 50.408936%, 72.885132%)" offset="0.0273438"/><stop stop-opacity="1" stop-color="rgb(16.749573%, 50.62561%, 73.127747%)" offset="0.0390625"/><stop stop-opacity="1" stop-color="rgb(16.920471%, 50.840759%, 73.370361%)" offset="0.0507812"/><stop stop-opacity="1" stop-color="rgb(17.089844%, 51.055908%, 73.612976%)" offset="0.0625"/><stop stop-opacity="1" stop-color="rgb(17.259216%, 51.272583%, 73.855591%)" offset="0.0742188"/><stop stop-opacity="1" stop-color="rgb(17.430115%, 51.487732%, 74.098206%)" offset="0.0859375"/><stop stop-opacity="1" stop-color="rgb(17.599487%, 51.702881%, 74.34082%)" offset="0.0976562"/><stop stop-opacity="1" stop-color="rgb(17.770386%, 51.919556%, 74.583435%)" offset="0.109375"/><stop stop-opacity="1" stop-color="rgb(17.939758%, 52.134705%, 74.82605%)" offset="0.121094"/><stop stop-opacity="1" stop-color="rgb(18.109131%, 52.349854%, 75.068665%)" offset="0.132812"/><stop stop-opacity="1" stop-color="rgb(18.280029%, 52.566528%, 75.311279%)" offset="0.144531"/><stop stop-opacity="1" stop-color="rgb(18.449402%, 52.781677%, 75.553894%)" offset="0.15625"/><stop stop-opacity="1" stop-color="rgb(18.618774%, 52.996826%, 75.796509%)" offset="0.167969"/><stop stop-opacity="1" stop-color="rgb(18.789673%, 53.213501%, 76.039124%)" offset="0.179688"/><stop stop-opacity="1" stop-color="rgb(18.959045%, 53.42865%, 76.281738%)" offset="0.191406"/><stop stop-opacity="1" stop-color="rgb(19.128418%, 53.643799%, 76.524353%)" offset="0.203125"/><stop stop-opacity="1" stop-color="rgb(19.299316%, 53.858948%, 76.766968%)" offset="0.214844"/><stop stop-opacity="1" stop-color="rgb(19.468689%, 54.075623%, 77.009583%)" offset="0.226562"/><stop stop-opacity="1" stop-color="rgb(19.638062%, 54.290771%, 77.252197%)" offset="0.238281"/><stop stop-opacity="1" stop-color="rgb(19.80896%, 54.50592%, 77.494812%)" offset="0.25"/><stop stop-opacity="1" stop-color="rgb(19.950867%, 54.685974%, 77.697754%)" offset="0.261719"/><stop stop-opacity="1" stop-color="rgb(20.063782%, 54.830933%, 77.859497%)" offset="0.269531"/><stop stop-opacity="1" stop-color="rgb(20.176697%, 54.974365%, 78.02124%)" offset="0.277344"/><stop stop-opacity="1" stop-color="rgb(20.291138%, 55.117798%, 78.182983%)" offset="0.285156"/><stop stop-opacity="1" stop-color="rgb(20.404053%, 55.26123%, 78.344727%)" offset="0.292969"/><stop stop-opacity="1" stop-color="rgb(20.516968%, 55.404663%, 78.50647%)" offset="0.300781"/><stop stop-opacity="1" stop-color="rgb(20.629883%, 55.549622%, 78.668213%)" offset="0.308594"/><stop stop-opacity="1" stop-color="rgb(20.744324%, 55.693054%, 78.829956%)" offset="0.316406"/><stop stop-opacity="1" stop-color="rgb(20.857239%, 55.836487%, 78.991699%)" offset="0.324219"/><stop stop-opacity="1" stop-color="rgb(20.970154%, 55.979919%, 79.153442%)" offset="0.332031"/><stop stop-opacity="1" stop-color="rgb(21.083069%, 56.123352%, 79.315186%)" offset="0.339844"/><stop stop-opacity="1" stop-color="rgb(21.195984%, 56.268311%, 79.476929%)" offset="0.347656"/><stop stop-opacity="1" stop-color="rgb(21.310425%, 56.411743%, 79.638672%)" offset="0.355469"/><stop stop-opacity="1" stop-color="rgb(21.42334%, 56.555176%, 79.800415%)" offset="0.363281"/><stop stop-opacity="1" stop-color="rgb(21.536255%, 56.698608%, 79.962158%)" offset="0.371094"/><stop stop-opacity="1" stop-color="rgb(21.705627%, 56.915283%, 80.204773%)" offset="0.378906"/><stop stop-opacity="1" stop-color="rgb(21.932983%, 57.202148%, 80.528259%)" offset="0.394531"/><stop stop-opacity="1" stop-color="rgb(22.158813%, 57.489014%, 80.851746%)" offset="0.410156"/><stop stop-opacity="1" stop-color="rgb(22.386169%, 57.777405%, 81.175232%)" offset="0.425781"/><stop stop-opacity="1" stop-color="rgb(22.612%, 58.06427%, 81.498718%)" offset="0.441406"/><stop stop-opacity="1" stop-color="rgb(22.839355%, 58.352661%, 81.822205%)" offset="0.457031"/><stop stop-opacity="1" stop-color="rgb(23.065186%, 58.639526%, 82.144165%)" offset="0.472656"/><stop stop-opacity="1" stop-color="rgb(23.292542%, 58.926392%, 82.467651%)" offset="0.488281"/><stop stop-opacity="1" stop-color="rgb(23.490906%, 59.178162%, 82.749939%)" offset="0.503906"/><stop stop-opacity="1" stop-color="rgb(23.660278%, 59.393311%, 82.992554%)" offset="0.515625"/><stop stop-opacity="1" stop-color="rgb(23.829651%, 59.609985%, 83.235168%)" offset="0.527344"/><stop stop-opacity="1" stop-color="rgb(24.000549%, 59.825134%, 83.477783%)" offset="0.539062"/><stop stop-opacity="1" stop-color="rgb(24.169922%, 60.040283%, 83.720398%)" offset="0.550781"/><stop stop-opacity="1" stop-color="rgb(24.339294%, 60.256958%, 83.963013%)" offset="0.5625"/><stop stop-opacity="1" stop-color="rgb(24.510193%, 60.472107%, 84.205627%)" offset="0.574219"/><stop stop-opacity="1" stop-color="rgb(24.679565%, 60.687256%, 84.448242%)" offset="0.585938"/><stop stop-opacity="1" stop-color="rgb(24.850464%, 60.903931%, 84.690857%)" offset="0.597656"/><stop stop-opacity="1" stop-color="rgb(25.019836%, 61.11908%, 84.933472%)" offset="0.609375"/><stop stop-opacity="1" stop-color="rgb(25.189209%, 61.334229%, 85.176086%)" offset="0.621094"/><stop stop-opacity="1" stop-color="rgb(25.331116%, 61.514282%, 85.379028%)" offset="0.632812"/><stop stop-opacity="1" stop-color="rgb(25.444031%, 61.657715%, 85.540771%)" offset="0.640625"/><stop stop-opacity="1" stop-color="rgb(25.558472%, 61.802673%, 85.702515%)" offset="0.648438"/><stop stop-opacity="1" stop-color="rgb(25.671387%, 61.946106%, 85.864258%)" offset="0.65625"/><stop stop-opacity="1" stop-color="rgb(25.784302%, 62.089539%, 86.026001%)" offset="0.664062"/><stop stop-opacity="1" stop-color="rgb(25.897217%, 62.232971%, 86.187744%)" offset="0.671875"/><stop stop-opacity="1" stop-color="rgb(26.011658%, 62.37793%, 86.349487%)" offset="0.679688"/><stop stop-opacity="1" stop-color="rgb(26.124573%, 62.521362%, 86.51123%)" offset="0.6875"/><stop stop-opacity="1" stop-color="rgb(26.293945%, 62.736511%, 86.753845%)" offset="0.695312"/><stop stop-opacity="1" stop-color="rgb(26.521301%, 63.023376%, 87.077332%)" offset="0.710938"/><stop stop-opacity="1" stop-color="rgb(26.747131%, 63.311768%, 87.400818%)" offset="0.726562"/><stop stop-opacity="1" stop-color="rgb(26.974487%, 63.598633%, 87.724304%)" offset="0.742188"/><stop stop-opacity="1" stop-color="rgb(27.171326%, 63.850403%, 88.006592%)" offset="0.757812"/><stop stop-opacity="1" stop-color="rgb(27.342224%, 64.065552%, 88.249207%)" offset="0.769531"/><stop stop-opacity="1" stop-color="rgb(27.511597%, 64.282227%, 88.491821%)" offset="0.78125"/><stop stop-opacity="1" stop-color="rgb(27.682495%, 64.497375%, 88.734436%)" offset="0.792969"/><stop stop-opacity="1" stop-color="rgb(27.851868%, 64.712524%, 88.977051%)" offset="0.804688"/><stop stop-opacity="1" stop-color="rgb(27.993774%, 64.892578%, 89.179993%)" offset="0.816406"/><stop stop-opacity="1" stop-color="rgb(28.106689%, 65.036011%, 89.341736%)" offset="0.824219"/><stop stop-opacity="1" stop-color="rgb(28.219604%, 65.180969%, 89.503479%)" offset="0.832031"/><stop stop-opacity="1" stop-color="rgb(28.334045%, 65.324402%, 89.665222%)" offset="0.839844"/><stop stop-opacity="1" stop-color="rgb(28.503418%, 65.539551%, 89.907837%)" offset="0.847656"/><stop stop-opacity="1" stop-color="rgb(28.729248%, 65.826416%, 90.231323%)" offset="0.863281"/><stop stop-opacity="1" stop-color="rgb(28.927612%, 66.078186%, 90.513611%)" offset="0.878906"/><stop stop-opacity="1" stop-color="rgb(29.098511%, 66.293335%, 90.756226%)" offset="0.890625"/><stop stop-opacity="1" stop-color="rgb(29.267883%, 66.51001%, 90.99884%)" offset="0.902344"/><stop stop-opacity="1" stop-color="rgb(29.40979%, 66.690063%, 91.201782%)" offset="0.914062"/><stop stop-opacity="1" stop-color="rgb(29.522705%, 66.833496%, 91.363525%)" offset="0.921875"/><stop stop-opacity="1" stop-color="rgb(29.692078%, 67.048645%, 91.60614%)" offset="0.929688"/><stop stop-opacity="1" stop-color="rgb(29.890442%, 67.300415%, 91.888428%)" offset="0.945312"/><stop stop-opacity="1" stop-color="rgb(30.032349%, 67.480469%, 92.09137%)" offset="0.957031"/><stop stop-opacity="1" stop-color="rgb(30.201721%, 67.695618%, 92.332458%)" offset="0.964844"/><stop stop-opacity="1" stop-color="rgb(30.37262%, 67.912292%, 92.575073%)" offset="0.980469"/><stop stop-opacity="1" stop-color="rgb(30.514526%, 68.09082%, 92.776489%)" offset="0.988281"/><stop stop-opacity="1" stop-color="rgb(30.599976%, 68.199158%, 92.89856%)" offset="1"/></radialGradient><clipPath id="6c0833fe00"><path d="M 5.023438 206.609375 L 307.964844 206.609375 L 307.964844 257.609375 L 5.023438 257.609375 Z M 5.023438 206.609375 " clip-rule="nonzero"/></clipPath><clipPath id="ecd8b5b9ce"><path d="M 41 39 L 138.742188 39 L 138.742188 136.933594 L 41 136.933594 Z M 41 39 " clip-rule="nonzero"/></clipPath><clipPath id="3235ecc594"><path d="M 140 118.757812 L 184 118.757812 L 184 174 L 140 174 Z M 140 118.757812 " clip-rule="nonzero"/></clipPath><clipPath id="d4c377a959"><path d="M 169 118.757812 L 204 118.757812 L 204 174 L 169 174 Z M 169 118.757812 " clip-rule="nonzero"/></clipPath><clipPath id="912109b4d3"><path d="M 198 118.757812 L 229 118.757812 L 229 174 L 198 174 Z M 198 118.757812 " clip-rule="nonzero"/></clipPath><clipPath id="3509db11d7"><path d="M 242 118.757812 L 287 118.757812 L 287 174 L 242 174 Z M 242 118.757812 " clip-rule="nonzero"/></clipPath><clipPath id="a7b400bb80"><path d="M 222 118.757812 L 258 118.757812 L 258 174 L 222 174 Z M 222 118.757812 " clip-rule="nonzero"/></clipPath><clipPath id="ff85fb26cb"><path d="M 139 172 L 171 172 L 171 187.644531 L 139 187.644531 Z M 139 172 " clip-rule="nonzero"/></clipPath><clipPath id="4ccd9b5a86"><path d="M 168 172 L 200 172 L 200 187.644531 L 168 187.644531 Z M 168 172 " clip-rule="nonzero"/></clipPath><clipPath id="3c35b10a6b"><path d="M 197 172 L 229 172 L 229 187.644531 L 197 187.644531 Z M 197 172 " clip-rule="nonzero"/></clipPath><clipPath id="87e5e048f4"><path d="M 256 172 L 288 172 L 288 187.644531 L 256 187.644531 Z M 256 172 " clip-rule="nonzero"/></clipPath><clipPath id="b377b73685"><path d="M 227 172 L 259 172 L 259 187.644531 L 227 187.644531 Z M 227 172 " clip-rule="nonzero"/></clipPath></defs><g clip-path="url(#9153fee171)"><g clip-path="url(#cd61d81716)"><path fill="url(#30379d5746)" d="M 1.375 0 L 1.375 306.589844 L 307.964844 306.589844 L 307.964844 0 Z M 1.375 0 " fill-rule="nonzero"/></g></g><g clip-path="url(#6c0833fe00)"><path fill="#ffffff" d="M 5.023438 206.609375 L 308.039062 206.609375 L 308.039062 257.609375 L 5.023438 257.609375 Z M 5.023438 206.609375 " fill-opacity="1" fill-rule="nonzero"/></g><g clip-path="url(#ecd8b5b9ce)"><path fill="#ffffff" d="M 113.054688 87.085938 C 113.054688 100.296875 103.894531 110.800781 90.683594 110.800781 C 77.46875 110.800781 66.371094 101.117188 66.371094 87.90625 C 66.371094 74.695312 76.398438 65.015625 89.609375 65.015625 C 103.878906 65.015625 113.054688 73.875 113.054688 87.085938 Z M 91.6875 40.070312 C 90.964844 38.953125 87.945312 38.839844 87.125 40.109375 C 86.28125 41.414062 87.042969 59.386719 89.40625 59.382812 C 91.992188 59.382812 92.3125 41.035156 91.6875 40.070312 Z M 67.507812 45.492188 C 66.320312 44.882812 63.648438 46.296875 63.574219 47.804688 C 63.496094 49.359375 73.140625 64.539062 75.1875 63.359375 C 77.425781 62.066406 68.527344 46.015625 67.507812 45.492188 Z M 49.273438 62.277344 C 47.945312 62.34375 46.335938 64.902344 47.023438 66.246094 C 47.734375 67.632812 63.679688 75.957031 64.859375 73.910156 C 66.152344 71.671875 50.421875 62.21875 49.273438 62.277344 Z M 41.878906 85.929688 C 40.757812 86.652344 40.648438 89.671875 41.914062 90.492188 C 43.21875 91.335938 61.191406 90.574219 61.191406 88.210938 C 61.191406 85.625 42.839844 85.308594 41.878906 85.929688 Z M 47.296875 110.113281 C 46.691406 111.296875 48.105469 113.96875 49.613281 114.046875 C 51.164062 114.125 66.347656 104.480469 65.164062 102.429688 C 63.871094 100.191406 47.820312 109.089844 47.296875 110.113281 Z M 64.082031 128.34375 C 64.152344 129.675781 66.710938 131.28125 68.054688 130.59375 C 69.4375 129.886719 77.765625 113.941406 75.714844 112.757812 C 73.476562 111.46875 64.027344 127.199219 64.082031 128.34375 Z M 87.738281 135.742188 C 88.460938 136.859375 91.480469 136.972656 92.300781 135.703125 C 93.144531 134.402344 92.382812 116.429688 90.019531 116.429688 C 87.433594 116.429688 87.113281 134.777344 87.738281 135.742188 Z M 111.917969 130.320312 C 113.105469 130.929688 115.777344 129.515625 115.851562 128.007812 C 115.929688 126.457031 106.285156 111.273438 104.238281 112.453125 C 102 113.746094 110.898438 129.796875 111.917969 130.320312 Z M 130.152344 113.535156 C 131.480469 113.46875 133.089844 110.910156 132.402344 109.566406 C 131.695312 108.183594 115.746094 99.855469 114.566406 101.902344 C 113.273438 104.140625 129.003906 113.59375 130.152344 113.535156 Z M 137.546875 89.882812 C 138.667969 89.160156 138.777344 86.140625 137.511719 85.320312 C 136.207031 84.476562 118.234375 85.238281 118.234375 87.601562 C 118.234375 90.1875 136.585938 90.507812 137.546875 89.882812 Z M 132.128906 65.699219 C 132.734375 64.515625 131.320312 61.84375 129.8125 61.765625 C 128.261719 61.6875 113.078125 71.332031 114.261719 73.382812 C 115.554688 75.621094 131.605469 66.722656 132.128906 65.699219 Z M 115.34375 47.46875 C 115.273438 46.136719 112.714844 44.53125 111.371094 45.21875 C 109.988281 45.925781 101.660156 61.871094 103.710938 63.054688 C 105.949219 64.34375 115.398438 48.613281 115.34375 47.46875 Z M 115.34375 47.46875 " fill-opacity="1" fill-rule="nonzero"/></g><path fill="#ffffff" d="M 141.015625 172.832031 L 162.5 119.578125 L 182.730469 119.578125 L 170.03125 172.832031 L 141.015625 172.832031 " fill-opacity="1" fill-rule="nonzero"/><g clip-path="url(#3235ecc594)"><path fill="#4eaeed" d="M 141.015625 172.832031 L 141.75 173.128906 L 163.03125 120.371094 L 181.726562 120.371094 L 169.40625 172.042969 L 141.015625 172.042969 L 141.015625 172.832031 L 141.75 173.128906 L 141.015625 172.832031 L 141.015625 173.625 L 170.03125 173.625 C 170.394531 173.625 170.714844 173.371094 170.800781 173.015625 L 183.5 119.761719 C 183.554688 119.527344 183.5 119.28125 183.351562 119.089844 C 183.199219 118.898438 182.972656 118.789062 182.730469 118.789062 L 162.5 118.789062 C 162.175781 118.789062 161.886719 118.984375 161.765625 119.285156 L 140.285156 172.539062 C 140.183594 172.78125 140.214844 173.058594 140.359375 173.277344 C 140.507812 173.492188 140.753906 173.625 141.015625 173.625 L 141.015625 172.832031 " fill-opacity="1" fill-rule="nonzero"/></g><path fill="#ffffff" d="M 170.03125 172.832031 L 182.730469 119.578125 L 202.957031 119.578125 L 199.042969 172.832031 L 170.03125 172.832031 " fill-opacity="1" fill-rule="nonzero"/><g clip-path="url(#d4c377a959)"><path fill="#4eaeed" d="M 170.03125 172.832031 L 170.800781 173.015625 L 183.351562 120.371094 L 202.105469 120.371094 L 198.308594 172.042969 L 170.03125 172.042969 L 170.03125 172.832031 L 170.800781 173.015625 L 170.03125 172.832031 L 170.03125 173.625 L 199.042969 173.625 C 199.457031 173.625 199.800781 173.304688 199.832031 172.890625 L 203.746094 119.636719 C 203.761719 119.417969 203.6875 119.203125 203.539062 119.042969 C 203.386719 118.878906 203.179688 118.789062 202.957031 118.789062 L 182.730469 118.789062 C 182.363281 118.789062 182.046875 119.039062 181.960938 119.394531 L 169.261719 172.652344 C 169.203125 172.886719 169.257812 173.132812 169.410156 173.324219 C 169.5625 173.515625 169.789062 173.625 170.03125 173.625 L 170.03125 172.832031 " fill-opacity="1" fill-rule="nonzero"/></g><path fill="#ffffff" d="M 199.042969 172.832031 L 202.957031 119.578125 L 223.1875 119.578125 L 228.054688 172.832031 L 199.042969 172.832031 " fill-opacity="1" fill-rule="nonzero"/><g clip-path="url(#912109b4d3)"><path fill="#4eaeed" d="M 199.042969 172.832031 L 199.832031 172.890625 L 203.691406 120.371094 L 222.464844 120.371094 L 227.191406 172.042969 L 199.042969 172.042969 L 199.042969 172.832031 L 199.832031 172.890625 L 199.042969 172.832031 L 199.042969 173.625 L 228.054688 173.625 C 228.28125 173.625 228.488281 173.53125 228.640625 173.367188 C 228.792969 173.203125 228.863281 172.984375 228.84375 172.761719 L 223.976562 119.507812 C 223.9375 119.101562 223.597656 118.789062 223.1875 118.789062 L 202.957031 118.789062 C 202.542969 118.789062 202.199219 119.109375 202.171875 119.523438 L 198.253906 172.777344 C 198.238281 172.996094 198.3125 173.210938 198.464844 173.371094 C 198.613281 173.53125 198.824219 173.625 199.042969 173.625 L 199.042969 172.832031 " fill-opacity="1" fill-rule="nonzero"/></g><path fill="#ffffff" d="M 243.417969 119.578125 L 263.648438 119.578125 L 286.082031 172.832031 L 257.070312 172.832031 L 243.417969 119.578125 " fill-opacity="1" fill-rule="nonzero"/><g clip-path="url(#3509db11d7)"><path fill="#4eaeed" d="M 243.417969 119.578125 L 243.417969 120.371094 L 263.121094 120.371094 L 284.890625 172.042969 L 257.683594 172.042969 L 244.183594 119.382812 L 243.417969 119.578125 L 243.417969 120.371094 L 243.417969 119.578125 L 242.652344 119.773438 L 256.304688 173.03125 C 256.394531 173.378906 256.707031 173.625 257.070312 173.625 L 286.082031 173.625 C 286.347656 173.625 286.59375 173.492188 286.742188 173.273438 C 286.886719 173.050781 286.914062 172.769531 286.8125 172.527344 L 264.375 119.273438 C 264.25 118.980469 263.964844 118.789062 263.648438 118.789062 L 243.417969 118.789062 C 243.171875 118.789062 242.945312 118.902344 242.792969 119.09375 C 242.640625 119.289062 242.589844 119.539062 242.652344 119.773438 L 243.417969 119.578125 " fill-opacity="1" fill-rule="nonzero"/></g><path fill="#ffffff" d="M 228.054688 172.832031 L 223.1875 119.578125 L 243.417969 119.578125 L 257.070312 172.832031 L 228.054688 172.832031 " fill-opacity="1" fill-rule="nonzero"/><g clip-path="url(#a7b400bb80)"><path fill="#4eaeed" d="M 228.054688 172.832031 L 228.84375 172.761719 L 224.054688 120.371094 L 242.804688 120.371094 L 256.050781 172.042969 L 228.054688 172.042969 L 228.054688 172.832031 L 228.84375 172.761719 L 228.054688 172.832031 L 228.054688 173.625 L 257.070312 173.625 C 257.316406 173.625 257.542969 173.511719 257.691406 173.316406 C 257.84375 173.125 257.894531 172.875 257.835938 172.636719 L 244.183594 119.382812 C 244.09375 119.035156 243.777344 118.789062 243.417969 118.789062 L 223.1875 118.789062 C 222.964844 118.789062 222.753906 118.882812 222.605469 119.046875 C 222.453125 119.210938 222.382812 119.429688 222.402344 119.652344 L 227.269531 172.90625 C 227.304688 173.3125 227.648438 173.625 228.054688 173.625 L 228.054688 172.832031 " fill-opacity="1" fill-rule="nonzero"/></g><path fill="#ffffff" d="M 169.429688 176.988281 C 168.628906 182.503906 161.164062 186.972656 152.761719 186.972656 C 144.359375 186.972656 138.644531 182.503906 139.996094 176.988281 L 141.015625 172.835938 L 170.03125 172.835938 L 169.429688 176.988281 " fill-opacity="1" fill-rule="nonzero"/><g clip-path="url(#ff85fb26cb)"><path fill="#4eaeed" d="M 169.429688 176.988281 L 168.644531 176.875 C 168.46875 178.09375 167.921875 179.277344 167.046875 180.386719 C 165.738281 182.042969 163.699219 183.503906 161.214844 184.535156 C 158.730469 185.570312 155.808594 186.179688 152.761719 186.179688 C 149.101562 186.183594 146.003906 185.296875 143.871094 183.898438 C 142.808594 183.203125 141.984375 182.382812 141.429688 181.488281 C 140.878906 180.589844 140.589844 179.625 140.589844 178.589844 C 140.589844 178.132812 140.644531 177.664062 140.765625 177.175781 L 141.636719 173.625 L 169.117188 173.625 L 168.644531 176.875 L 169.429688 176.988281 L 170.210938 177.101562 L 170.8125 172.949219 C 170.84375 172.722656 170.777344 172.492188 170.628906 172.316406 C 170.476562 172.144531 170.257812 172.042969 170.03125 172.042969 L 141.015625 172.042969 C 140.652344 172.042969 140.335938 172.292969 140.25 172.644531 L 139.230469 176.800781 C 139.082031 177.402344 139.007812 178.003906 139.007812 178.589844 C 139.007812 179.925781 139.390625 181.195312 140.085938 182.316406 C 141.128906 184.003906 142.847656 185.359375 145.019531 186.296875 C 147.191406 187.234375 149.828125 187.761719 152.761719 187.761719 C 157.105469 187.761719 161.199219 186.613281 164.351562 184.726562 C 165.929688 183.78125 167.273438 182.648438 168.289062 181.363281 C 169.300781 180.082031 169.988281 178.640625 170.210938 177.101562 L 169.429688 176.988281 " fill-opacity="1" fill-rule="nonzero"/></g><path fill="#ffffff" d="M 199.042969 172.835938 L 198.859375 176.988281 C 198.609375 182.503906 191.597656 186.972656 183.195312 186.972656 C 174.792969 186.972656 168.628906 182.503906 169.429688 176.988281 L 170.03125 172.835938 L 199.042969 172.835938 " fill-opacity="1" fill-rule="nonzero"/><g clip-path="url(#4ccd9b5a86)"><path fill="#4eaeed" d="M 199.042969 172.835938 L 198.253906 172.800781 L 198.066406 176.953125 C 198.011719 178.167969 197.589844 179.332031 196.835938 180.425781 C 195.710938 182.0625 193.835938 183.511719 191.460938 184.542969 C 189.09375 185.570312 186.242188 186.179688 183.195312 186.179688 C 179.371094 186.183594 176.054688 185.21875 173.742188 183.699219 C 172.585938 182.9375 171.683594 182.042969 171.074219 181.070312 C 170.46875 180.101562 170.148438 179.058594 170.148438 177.945312 C 170.148438 177.667969 170.167969 177.386719 170.210938 177.105469 L 170.210938 177.101562 L 170.714844 173.625 L 199.042969 173.625 L 199.042969 172.835938 L 198.253906 172.800781 L 199.042969 172.835938 L 199.042969 172.042969 L 170.03125 172.042969 C 169.636719 172.042969 169.304688 172.332031 169.246094 172.71875 L 168.644531 176.875 C 168.589844 177.234375 168.566406 177.59375 168.566406 177.945312 C 168.566406 179.367188 168.984375 180.71875 169.738281 181.914062 C 170.863281 183.707031 172.710938 185.160156 175.023438 186.175781 C 177.335938 187.1875 180.128906 187.761719 183.195312 187.761719 C 187.535156 187.761719 191.527344 186.613281 194.507812 184.714844 C 196 183.765625 197.242188 182.621094 198.136719 181.324219 C 199.03125 180.027344 199.578125 178.566406 199.648438 177.023438 L 199.832031 172.871094 C 199.84375 172.652344 199.765625 172.445312 199.613281 172.289062 C 199.464844 172.128906 199.261719 172.042969 199.042969 172.042969 L 199.042969 172.835938 " fill-opacity="1" fill-rule="nonzero"/></g><path fill="#ffffff" d="M 227.878906 172.835938 L 228.105469 176.988281 C 228.414062 182.503906 221.851562 186.972656 213.445312 186.972656 C 205.042969 186.972656 198.433594 182.503906 198.679688 176.988281 L 198.863281 172.835938 L 227.878906 172.835938 " fill-opacity="1" fill-rule="nonzero"/><g clip-path="url(#3c35b10a6b)"><path fill="#4eaeed" d="M 227.878906 172.835938 L 227.085938 172.878906 L 227.316406 177.03125 C 227.324219 177.140625 227.328125 177.25 227.328125 177.359375 C 227.324219 178.535156 226.976562 179.648438 226.3125 180.6875 C 225.324219 182.25 223.605469 183.632812 221.378906 184.613281 C 219.152344 185.597656 216.425781 186.179688 213.445312 186.179688 C 209.457031 186.183594 205.90625 185.132812 203.398438 183.484375 C 202.144531 182.660156 201.152344 181.691406 200.484375 180.644531 C 199.816406 179.59375 199.464844 178.46875 199.460938 177.285156 C 199.460938 177.199219 199.464844 177.113281 199.46875 177.027344 L 199.46875 177.023438 L 199.621094 173.625 L 227.878906 173.625 L 227.878906 172.835938 L 227.085938 172.878906 L 227.878906 172.835938 L 227.878906 172.042969 L 198.863281 172.042969 C 198.441406 172.042969 198.09375 172.378906 198.074219 172.800781 L 197.886719 176.953125 L 197.886719 176.949219 C 197.882812 177.066406 197.878906 177.175781 197.878906 177.285156 C 197.878906 178.792969 198.339844 180.222656 199.152344 181.492188 C 200.371094 183.402344 202.359375 184.957031 204.828125 186.046875 C 207.292969 187.136719 210.25 187.761719 213.445312 187.761719 C 217.691406 187.761719 221.5 186.664062 224.296875 184.828125 C 225.695312 183.910156 226.84375 182.800781 227.648438 181.539062 C 228.453125 180.277344 228.910156 178.855469 228.910156 177.359375 C 228.910156 177.222656 228.90625 177.085938 228.898438 176.945312 L 228.667969 172.789062 C 228.644531 172.371094 228.296875 172.042969 227.878906 172.042969 L 227.878906 172.835938 " fill-opacity="1" fill-rule="nonzero"/></g><path fill="#ffffff" d="M 274.308594 186.972656 C 265.90625 186.972656 258.398438 182.503906 257.539062 176.988281 L 256.890625 172.835938 L 285.902344 172.835938 L 286.96875 176.988281 C 288.382812 182.503906 282.714844 186.972656 274.308594 186.972656 " fill-opacity="1" fill-rule="nonzero"/><g clip-path="url(#87e5e048f4)"><path fill="#4eaeed" d="M 274.308594 186.972656 L 274.308594 186.179688 C 270.25 186.183594 266.398438 185.09375 263.5 183.367188 C 262.050781 182.507812 260.84375 181.484375 259.957031 180.378906 C 259.070312 179.273438 258.507812 178.085938 258.320312 176.867188 L 257.8125 173.625 L 285.289062 173.625 L 286.203125 177.183594 C 286.332031 177.691406 286.394531 178.183594 286.394531 178.65625 C 286.390625 179.6875 286.105469 180.644531 285.558594 181.53125 C 284.742188 182.859375 283.308594 184.027344 281.382812 184.859375 C 279.457031 185.691406 277.042969 186.179688 274.308594 186.179688 L 274.308594 187.761719 C 278.203125 187.761719 281.566406 186.839844 284.007812 185.246094 C 285.226562 184.449219 286.214844 183.476562 286.90625 182.363281 C 287.59375 181.25 287.976562 179.988281 287.972656 178.65625 C 287.972656 178.046875 287.894531 177.421875 287.734375 176.792969 L 286.667969 172.636719 C 286.578125 172.289062 286.261719 172.042969 285.902344 172.042969 L 256.890625 172.042969 C 256.660156 172.042969 256.4375 172.144531 256.289062 172.320312 C 256.136719 172.496094 256.074219 172.726562 256.109375 172.957031 L 256.753906 177.109375 C 256.996094 178.648438 257.695312 180.085938 258.722656 181.367188 C 260.265625 183.292969 262.539062 184.878906 265.234375 185.996094 C 267.929688 187.113281 271.054688 187.761719 274.308594 187.761719 L 274.308594 186.972656 " fill-opacity="1" fill-rule="nonzero"/></g><path fill="#ffffff" d="M 257.070312 172.835938 L 257.71875 176.988281 C 258.578125 182.503906 252.460938 186.972656 244.058594 186.972656 C 235.65625 186.972656 228.59375 182.503906 228.289062 176.988281 L 228.054688 172.835938 L 257.070312 172.835938 " fill-opacity="1" fill-rule="nonzero"/><g clip-path="url(#b377b73685)"><path fill="#4eaeed" d="M 257.070312 172.835938 L 256.289062 172.957031 L 256.9375 177.109375 C 256.984375 177.417969 257.007812 177.71875 257.007812 178.015625 C 257.007812 179.121094 256.6875 180.15625 256.089844 181.117188 C 255.1875 182.5625 253.621094 183.835938 251.546875 184.738281 C 249.480469 185.644531 246.914062 186.179688 244.058594 186.179688 C 239.996094 186.183594 236.265625 185.09375 233.558594 183.378906 C 232.207031 182.523438 231.109375 181.515625 230.347656 180.421875 C 229.582031 179.328125 229.144531 178.160156 229.078125 176.945312 L 228.890625 173.625 L 257.070312 173.625 L 257.070312 172.835938 L 256.289062 172.957031 L 257.070312 172.835938 L 257.070312 172.042969 L 228.054688 172.042969 C 227.839844 172.042969 227.632812 172.132812 227.480469 172.292969 C 227.332031 172.449219 227.253906 172.660156 227.265625 172.878906 L 227.496094 177.03125 C 227.582031 178.574219 228.144531 180.03125 229.050781 181.328125 C 230.414062 183.273438 232.546875 184.871094 235.144531 185.992188 C 237.738281 187.113281 240.800781 187.761719 244.058594 187.761719 C 248.125 187.761719 251.703125 186.753906 254.3125 185.039062 C 255.621094 184.183594 256.683594 183.144531 257.429688 181.957031 C 258.171875 180.769531 258.589844 179.429688 258.589844 178.015625 C 258.589844 177.636719 258.558594 177.253906 258.5 176.867188 L 257.851562 172.710938 C 257.789062 172.328125 257.457031 172.042969 257.070312 172.042969 L 257.070312 172.835938 " fill-opacity="1" fill-rule="nonzero"/></g><g fill="#297fb8" fill-opacity="1"><g transform="translate(26.311577, 242.586407)"><g><path d="M 9.921875 0 L 6.875 0 L 6.875 -19.28125 C 6.164062 -19.445312 5.457031 -19.53125 4.75 -19.53125 L 0.5 -18.5625 L 0.3125 -20.796875 L 16.484375 -20.796875 L 16.328125 -18.5625 L 12.0625 -19.53125 C 11.34375 -19.53125 10.628906 -19.445312 9.921875 -19.28125 Z M 9.921875 0 "/></g></g></g><g fill="#297fb8" fill-opacity="1"><g transform="translate(43.11172, 242.586407)"><g><path d="M 12.28125 -21.171875 C 15 -21.171875 17.25 -20.273438 19.03125 -18.484375 C 20.8125 -16.691406 21.703125 -14.207031 21.703125 -11.03125 C 21.703125 -8.976562 21.34375 -7.179688 20.625 -5.640625 C 19.914062 -4.097656 18.988281 -2.910156 17.84375 -2.078125 C 15.601562 -0.441406 13.128906 0.375 10.421875 0.375 C 7.722656 0.375 5.488281 -0.53125 3.71875 -2.34375 C 1.945312 -4.15625 1.0625 -6.648438 1.0625 -9.828125 C 1.0625 -11.484375 1.296875 -12.972656 1.765625 -14.296875 C 2.242188 -15.628906 2.863281 -16.710938 3.625 -17.546875 C 4.394531 -18.390625 5.28125 -19.09375 6.28125 -19.65625 C 8.125 -20.664062 10.125 -21.171875 12.28125 -21.171875 Z M 5.96875 -3.578125 C 6.507812 -2.660156 7.238281 -1.941406 8.15625 -1.421875 C 9.082031 -0.910156 10.144531 -0.65625 11.34375 -0.65625 C 12.550781 -0.65625 13.625 -0.957031 14.5625 -1.5625 C 15.507812 -2.175781 16.242188 -2.972656 16.765625 -3.953125 C 17.835938 -5.921875 18.375 -8.035156 18.375 -10.296875 C 18.375 -13.085938 17.816406 -15.328125 16.703125 -17.015625 C 15.472656 -18.921875 13.429688 -19.875 10.578125 -19.875 C 8.546875 -19.164062 7.003906 -17.941406 5.953125 -16.203125 C 4.910156 -14.460938 4.390625 -12.492188 4.390625 -10.296875 C 4.390625 -7.617188 4.914062 -5.378906 5.96875 -3.578125 Z M 5.96875 -3.578125 "/></g></g></g><g fill="#297fb8" fill-opacity="1"><g transform="translate(65.878266, 242.586407)"><g><path d="M 2.828125 0 L 2.828125 -20.796875 L 5.90625 -20.796875 L 5.90625 -1.703125 C 7.175781 -1.316406 8.203125 -1.125 8.984375 -1.125 L 14.671875 -2.109375 L 14.296875 0 Z M 2.828125 0 "/></g></g></g><g fill="#297fb8" fill-opacity="1"><g transform="translate(81.171098, 242.586407)"><g><path d="M 2.828125 0 L 2.828125 -20.796875 L 8.765625 -20.796875 C 11.234375 -20.796875 13.460938 -20.269531 15.453125 -19.21875 C 16.515625 -18.675781 17.441406 -17.992188 18.234375 -17.171875 C 19.035156 -16.359375 19.675781 -15.316406 20.15625 -14.046875 C 20.644531 -12.785156 20.890625 -11.378906 20.890625 -9.828125 C 20.890625 -7.609375 20.332031 -5.734375 19.21875 -4.203125 C 17.1875 -1.398438 13.898438 0 9.359375 0 Z M 8.734375 -1.0625 C 11.390625 -1.0625 13.523438 -1.847656 15.140625 -3.421875 C 16.753906 -4.992188 17.5625 -7.296875 17.5625 -10.328125 C 17.5625 -12.671875 16.921875 -14.675781 15.640625 -16.34375 C 14.359375 -18.007812 12.703125 -19.113281 10.671875 -19.65625 C 8.859375 -19.65625 7.269531 -19.4375 5.90625 -19 L 5.90625 -1.34375 C 6.570312 -1.15625 7.515625 -1.0625 8.734375 -1.0625 Z M 8.734375 -1.0625 "/></g></g></g><g fill="#297fb8" fill-opacity="1"><g transform="translate(103.40381, 242.586407)"><g><path d="M 12.28125 -21.171875 C 15 -21.171875 17.25 -20.273438 19.03125 -18.484375 C 20.8125 -16.691406 21.703125 -14.207031 21.703125 -11.03125 C 21.703125 -8.976562 21.34375 -7.179688 20.625 -5.640625 C 19.914062 -4.097656 18.988281 -2.910156 17.84375 -2.078125 C 15.601562 -0.441406 13.128906 0.375 10.421875 0.375 C 7.722656 0.375 5.488281 -0.53125 3.71875 -2.34375 C 1.945312 -4.15625 1.0625 -6.648438 1.0625 -9.828125 C 1.0625 -11.484375 1.296875 -12.972656 1.765625 -14.296875 C 2.242188 -15.628906 2.863281 -16.710938 3.625 -17.546875 C 4.394531 -18.390625 5.28125 -19.09375 6.28125 -19.65625 C 8.125 -20.664062 10.125 -21.171875 12.28125 -21.171875 Z M 5.96875 -3.578125 C 6.507812 -2.660156 7.238281 -1.941406 8.15625 -1.421875 C 9.082031 -0.910156 10.144531 -0.65625 11.34375 -0.65625 C 12.550781 -0.65625 13.625 -0.957031 14.5625 -1.5625 C 15.507812 -2.175781 16.242188 -2.972656 16.765625 -3.953125 C 17.835938 -5.921875 18.375 -8.035156 18.375 -10.296875 C 18.375 -13.085938 17.816406 -15.328125 16.703125 -17.015625 C 15.472656 -18.921875 13.429688 -19.875 10.578125 -19.875 C 8.546875 -19.164062 7.003906 -17.941406 5.953125 -16.203125 C 4.910156 -14.460938 4.390625 -12.492188 4.390625 -10.296875 C 4.390625 -7.617188 4.914062 -5.378906 5.96875 -3.578125 Z M 5.96875 -3.578125 "/></g></g></g><g fill="#297fb8" fill-opacity="1"><g transform="translate(126.170356, 242.586407)"><g><path d="M 5.09375 -17.171875 C 5.09375 -16.253906 5.453125 -15.398438 6.171875 -14.609375 C 6.890625 -13.828125 7.765625 -13.140625 8.796875 -12.546875 C 9.835938 -11.953125 10.867188 -11.34375 11.890625 -10.71875 C 12.921875 -10.101562 13.796875 -9.34375 14.515625 -8.4375 C 15.242188 -7.539062 15.609375 -6.550781 15.609375 -5.46875 C 15.609375 -3.75 14.972656 -2.34375 13.703125 -1.25 C 12.441406 -0.164062 10.734375 0.375 8.578125 0.375 C 6.421875 0.375 4.285156 -0.03125 2.171875 -0.84375 L 2.171875 -2.328125 C 4.304688 -1.253906 6.117188 -0.71875 7.609375 -0.71875 C 9.109375 -0.71875 10.273438 -1.082031 11.109375 -1.8125 C 11.953125 -2.550781 12.375 -3.570312 12.375 -4.875 C 12.375 -5.75 12.023438 -6.546875 11.328125 -7.265625 C 10.640625 -7.992188 9.800781 -8.625 8.8125 -9.15625 C 7.832031 -9.6875 6.847656 -10.234375 5.859375 -10.796875 C 4.878906 -11.367188 4.046875 -12.085938 3.359375 -12.953125 C 2.671875 -13.828125 2.328125 -14.878906 2.328125 -16.109375 C 2.328125 -17.347656 2.875 -18.5 3.96875 -19.5625 C 5.070312 -20.632812 6.710938 -21.171875 8.890625 -21.171875 C 10.316406 -21.171875 12.117188 -20.84375 14.296875 -20.1875 L 13.96875 -18.0625 C 11.144531 -19.269531 8.726562 -19.875 6.71875 -19.875 C 5.632812 -19.351562 5.09375 -18.453125 5.09375 -17.171875 Z M 5.09375 -17.171875 "/></g></g></g><g fill="#297fb8" fill-opacity="1"><g transform="translate(143.629946, 242.586407)"><g/></g></g><g fill="#297fb8" fill-opacity="1"><g transform="translate(151.480473, 242.586407)"><g><path d="M 16.796875 -15.390625 C 16.796875 -13.378906 16.054688 -11.851562 14.578125 -10.8125 C 13.109375 -9.78125 11.109375 -9.265625 8.578125 -9.265625 L 5.875 -9.265625 L 5.875 0 L 2.828125 0 L 2.828125 -20.796875 L 9.578125 -20.796875 C 11.691406 -20.796875 13.421875 -20.3125 14.765625 -19.34375 C 16.117188 -18.382812 16.796875 -17.066406 16.796875 -15.390625 Z M 5.875 -10.171875 L 8.671875 -10.171875 C 9.648438 -10.171875 10.488281 -10.359375 11.1875 -10.734375 C 11.894531 -11.117188 12.40625 -11.601562 12.71875 -12.1875 C 13.28125 -13.226562 13.5625 -14.242188 13.5625 -15.234375 C 13.5625 -15.710938 13.4375 -16.285156 13.1875 -16.953125 C 12.6875 -18.335938 11.648438 -19.238281 10.078125 -19.65625 C 8.566406 -19.65625 7.164062 -19.476562 5.875 -19.125 Z M 5.875 -10.171875 "/></g></g></g><g fill="#297fb8" fill-opacity="1"><g transform="translate(168.626032, 242.586407)"><g><path d="M 0.3125 0 L 9.640625 -21.296875 L 10.109375 -21.296875 L 19.4375 0 L 16.015625 0 L 13.65625 -5.65625 L 4.328125 -5.65625 L 2.015625 0 Z M 4.8125 -6.84375 L 13.15625 -6.84375 L 9.015625 -17.015625 Z M 4.8125 -6.84375 "/></g></g></g><g fill="#297fb8" fill-opacity="1"><g transform="translate(188.377968, 242.586407)"><g><path d="M 12.40625 0.375 C 9.15625 0.375 6.421875 -0.503906 4.203125 -2.265625 C 1.984375 -4.023438 0.875 -6.546875 0.875 -9.828125 C 0.875 -11.753906 1.238281 -13.46875 1.96875 -14.96875 C 2.707031 -16.476562 3.675781 -17.664062 4.875 -18.53125 C 7.28125 -20.289062 9.976562 -21.171875 12.96875 -21.171875 C 14.707031 -21.171875 16.519531 -20.851562 18.40625 -20.21875 L 18.09375 -18.09375 C 17.101562 -18.507812 16.335938 -18.820312 15.796875 -19.03125 C 14.222656 -19.59375 12.644531 -19.875 11.0625 -19.875 C 8.851562 -19.375 7.15625 -18.285156 5.96875 -16.609375 C 4.789062 -14.929688 4.203125 -12.835938 4.203125 -10.328125 C 4.203125 -7.253906 5.007812 -4.882812 6.625 -3.21875 C 8.238281 -1.550781 10.363281 -0.71875 13 -0.71875 C 15.632812 -0.71875 17.601562 -1.285156 18.90625 -2.421875 L 18.90625 -0.6875 C 17.101562 0.0195312 14.9375 0.375 12.40625 0.375 Z M 12.40625 0.375 "/></g></g></g><g fill="#297fb8" fill-opacity="1"><g transform="translate(208.224118, 242.586407)"><g><path d="M 5.71875 -20.796875 L 5.71875 0 L 2.828125 0 L 2.828125 -20.796875 Z M 4.171875 -22.578125 L 2.921875 -22.578125 L 8.328125 -28.484375 L 10.078125 -26.921875 Z M 4.171875 -22.578125 "/></g></g></g><g fill="#297fb8" fill-opacity="1"><g transform="translate(216.7655, 242.586407)"><g><path d="M 5.875 -11.5 L 12.53125 -11.5 L 12.53125 -10.296875 L 5.875 -10.296875 L 5.875 0 L 2.828125 0 L 2.828125 -20.796875 L 15.109375 -20.796875 L 15.109375 -18.6875 L 9.296875 -19.65625 C 8.242188 -19.65625 7.101562 -19.476562 5.875 -19.125 Z M 5.875 -11.5 "/></g></g></g><g fill="#297fb8" fill-opacity="1"><g transform="translate(231.869926, 242.586407)"><g><path d="M 5.71875 -20.796875 L 5.71875 0 L 2.828125 0 L 2.828125 -20.796875 Z M 5.71875 -20.796875 "/></g></g></g><g fill="#297fb8" fill-opacity="1"><g transform="translate(240.411296, 242.586407)"><g><path d="M 12.40625 0.375 C 9.15625 0.375 6.421875 -0.503906 4.203125 -2.265625 C 1.984375 -4.023438 0.875 -6.546875 0.875 -9.828125 C 0.875 -11.753906 1.238281 -13.46875 1.96875 -14.96875 C 2.707031 -16.476562 3.675781 -17.664062 4.875 -18.53125 C 7.28125 -20.289062 9.976562 -21.171875 12.96875 -21.171875 C 14.707031 -21.171875 16.519531 -20.851562 18.40625 -20.21875 L 18.09375 -18.09375 C 17.101562 -18.507812 16.335938 -18.820312 15.796875 -19.03125 C 14.222656 -19.59375 12.644531 -19.875 11.0625 -19.875 C 8.851562 -19.375 7.15625 -18.285156 5.96875 -16.609375 C 4.789062 -14.929688 4.203125 -12.835938 4.203125 -10.328125 C 4.203125 -7.253906 5.007812 -4.882812 6.625 -3.21875 C 8.238281 -1.550781 10.363281 -0.71875 13 -0.71875 C 15.632812 -0.71875 17.601562 -1.285156 18.90625 -2.421875 L 18.90625 -0.6875 C 17.101562 0.0195312 14.9375 0.375 12.40625 0.375 Z M 12.40625 0.375 "/></g></g></g><g fill="#297fb8" fill-opacity="1"><g transform="translate(260.257459, 242.586407)"><g><path d="M 12.28125 -21.171875 C 15 -21.171875 17.25 -20.273438 19.03125 -18.484375 C 20.8125 -16.691406 21.703125 -14.207031 21.703125 -11.03125 C 21.703125 -8.976562 21.34375 -7.179688 20.625 -5.640625 C 19.914062 -4.097656 18.988281 -2.910156 17.84375 -2.078125 C 15.601562 -0.441406 13.128906 0.375 10.421875 0.375 C 7.722656 0.375 5.488281 -0.53125 3.71875 -2.34375 C 1.945312 -4.15625 1.0625 -6.648438 1.0625 -9.828125 C 1.0625 -11.484375 1.296875 -12.972656 1.765625 -14.296875 C 2.242188 -15.628906 2.863281 -16.710938 3.625 -17.546875 C 4.394531 -18.390625 5.28125 -19.09375 6.28125 -19.65625 C 8.125 -20.664062 10.125 -21.171875 12.28125 -21.171875 Z M 5.96875 -3.578125 C 6.507812 -2.660156 7.238281 -1.941406 8.15625 -1.421875 C 9.082031 -0.910156 10.144531 -0.65625 11.34375 -0.65625 C 12.550781 -0.65625 13.625 -0.957031 14.5625 -1.5625 C 15.507812 -2.175781 16.242188 -2.972656 16.765625 -3.953125 C 17.835938 -5.921875 18.375 -8.035156 18.375 -10.296875 C 18.375 -13.085938 17.816406 -15.328125 16.703125 -17.015625 C 15.472656 -18.921875 13.429688 -19.875 10.578125 -19.875 C 8.546875 -19.164062 7.003906 -17.941406 5.953125 -16.203125 C 4.910156 -14.460938 4.390625 -12.492188 4.390625 -10.296875 C 4.390625 -7.617188 4.914062 -5.378906 5.96875 -3.578125 Z M 5.96875 -3.578125 "/></g></g></g><g fill="#ffffff" fill-opacity="1"><g transform="translate(84.501034, 279.923476)"><g><path d="M 0.15625 0 L 4.90625 -10.828125 L 5.140625 -10.828125 L 9.890625 0 L 8.140625 0 L 6.953125 -2.875 L 2.203125 -2.875 L 1.015625 0 Z M 2.4375 -3.484375 L 6.6875 -3.484375 L 4.578125 -8.65625 Z M 2.4375 -3.484375 "/></g></g></g><g fill="#ffffff" fill-opacity="1"><g transform="translate(94.546288, 279.923476)"><g><path d="M 2.359375 0 L 1.015625 0 L 1.015625 -7.21875 L 1.953125 -7.21875 L 2.3125 -5.875 C 2.53125 -6.25 2.867188 -6.597656 3.328125 -6.921875 C 3.796875 -7.253906 4.273438 -7.457031 4.765625 -7.53125 L 4.921875 -6.4375 C 4.523438 -6.4375 4.078125 -6.3125 3.578125 -6.0625 C 3.085938 -5.820312 2.679688 -5.550781 2.359375 -5.25 Z M 2.359375 0 "/></g></g></g><g fill="#ffffff" fill-opacity="1"><g transform="translate(99.624803, 279.923476)"><g><path d="M 2.796875 -1.40625 C 2.796875 -1.082031 2.859375 -0.84375 2.984375 -0.6875 C 3.109375 -0.53125 3.320312 -0.453125 3.625 -0.453125 C 3.925781 -0.453125 4.28125 -0.53125 4.6875 -0.6875 L 4.6875 -0.234375 C 4.070312 0.046875 3.519531 0.1875 3.03125 0.1875 C 2.539062 0.1875 2.15625 0.0507812 1.875 -0.21875 C 1.59375 -0.488281 1.453125 -0.910156 1.453125 -1.484375 L 1.453125 -6.640625 L 0.15625 -6.90625 L 0.15625 -7.21875 L 1.453125 -7.21875 L 1.453125 -7.796875 L 2.796875 -8.765625 L 2.796875 -7.21875 L 4.6875 -7.21875 L 4.6875 -6.640625 L 2.796875 -6.640625 Z M 2.796875 -1.40625 "/></g></g></g><g fill="#ffffff" fill-opacity="1"><g transform="translate(104.878996, 279.923476)"><g><path d="M 1.203125 0 L 1.203125 -7.21875 L 2.515625 -7.21875 L 2.515625 0 Z M 1.03125 -9.4375 C 1.03125 -9.664062 1.109375 -9.859375 1.265625 -10.015625 C 1.421875 -10.179688 1.613281 -10.265625 1.84375 -10.265625 C 2.070312 -10.265625 2.269531 -10.179688 2.4375 -10.015625 C 2.601562 -9.859375 2.6875 -9.671875 2.6875 -9.453125 C 2.6875 -9.234375 2.601562 -9.035156 2.4375 -8.859375 C 2.269531 -8.691406 2.070312 -8.609375 1.84375 -8.609375 C 1.625 -8.609375 1.429688 -8.691406 1.265625 -8.859375 C 1.109375 -9.023438 1.03125 -9.21875 1.03125 -9.4375 Z M 1.03125 -9.4375 "/></g></g></g><g fill="#ffffff" fill-opacity="1"><g transform="translate(108.600046, 279.923476)"><g><path d="M 3.640625 0.1875 C 2.710938 0.1875 1.941406 -0.125 1.328125 -0.75 C 0.722656 -1.382812 0.421875 -2.28125 0.421875 -3.4375 C 0.421875 -4.601562 0.742188 -5.554688 1.390625 -6.296875 C 2.046875 -7.035156 2.878906 -7.40625 3.890625 -7.40625 C 4.460938 -7.40625 5.097656 -7.269531 5.796875 -7 L 5.640625 -5.9375 C 4.703125 -6.425781 3.894531 -6.671875 3.21875 -6.671875 C 2.664062 -6.398438 2.265625 -5.953125 2.015625 -5.328125 C 1.773438 -4.710938 1.65625 -4.109375 1.65625 -3.515625 C 1.65625 -2.703125 1.890625 -2.023438 2.359375 -1.484375 C 2.835938 -0.953125 3.40625 -0.6875 4.0625 -0.6875 C 4.726562 -0.6875 5.335938 -0.832031 5.890625 -1.125 L 5.890625 -0.5625 C 5.128906 -0.0625 4.378906 0.1875 3.640625 0.1875 Z M 3.640625 0.1875 "/></g></g></g><g fill="#ffffff" fill-opacity="1"><g transform="translate(115.083945, 279.923476)"><g><path d="M 6.34375 -2.140625 C 6.34375 -1.398438 6.617188 -0.820312 7.171875 -0.40625 L 6.34375 0.1875 L 5.046875 -0.96875 C 4.609375 -0.550781 4.21875 -0.253906 3.875 -0.078125 C 3.539062 0.0976562 3.140625 0.1875 2.671875 0.1875 C 2.210938 0.1875 1.785156 0.0078125 1.390625 -0.34375 C 1.003906 -0.695312 0.8125 -1.3125 0.8125 -2.1875 L 0.8125 -7.21875 L 2.171875 -7.21875 L 2.171875 -2.109375 C 2.171875 -1.597656 2.265625 -1.210938 2.453125 -0.953125 C 2.640625 -0.691406 2.960938 -0.5625 3.421875 -0.5625 C 3.890625 -0.5625 4.410156 -0.898438 4.984375 -1.578125 L 4.984375 -7.21875 L 6.34375 -7.21875 Z M 6.34375 -2.140625 "/></g></g></g><g fill="#ffffff" fill-opacity="1"><g transform="translate(122.749641, 279.923476)"><g><path d="M 2.53125 -10.90625 L 2.53125 0 L 1.203125 0 L 1.203125 -10.90625 Z M 2.53125 -10.90625 "/></g></g></g><g fill="#ffffff" fill-opacity="1"><g transform="translate(126.486664, 279.923476)"><g><path d="M 4.546875 -1.6875 L 4.546875 -3.34375 C 3.785156 -3.28125 3.160156 -3.101562 2.671875 -2.8125 C 2.179688 -2.53125 1.9375 -2.222656 1.9375 -1.890625 C 1.9375 -1.566406 2.019531 -1.285156 2.1875 -1.046875 C 2.351562 -0.804688 2.570312 -0.640625 2.84375 -0.546875 C 3.195312 -0.609375 3.566406 -0.78125 3.953125 -1.0625 C 4.347656 -1.351562 4.546875 -1.5625 4.546875 -1.6875 Z M 5.859375 -2.125 C 5.859375 -1.363281 6.132812 -0.789062 6.6875 -0.40625 L 5.859375 0.203125 L 4.5625 -0.953125 C 3.726562 -0.191406 2.953125 0.1875 2.234375 0.1875 C 1.765625 0.1875 1.363281 0.0390625 1.03125 -0.25 C 0.695312 -0.550781 0.53125 -0.925781 0.53125 -1.375 C 0.53125 -1.832031 0.664062 -2.207031 0.9375 -2.5 C 1.207031 -2.800781 1.566406 -3.03125 2.015625 -3.1875 C 2.773438 -3.476562 3.617188 -3.660156 4.546875 -3.734375 L 4.546875 -5.234375 C 4.546875 -6.117188 4.035156 -6.5625 3.015625 -6.5625 C 2.429688 -6.5625 1.738281 -6.4375 0.9375 -6.1875 L 0.796875 -6.578125 C 1.015625 -6.742188 1.382812 -6.921875 1.90625 -7.109375 C 2.4375 -7.304688 2.941406 -7.40625 3.421875 -7.40625 C 3.898438 -7.40625 4.300781 -7.34375 4.625 -7.21875 C 4.945312 -7.09375 5.1875 -6.945312 5.34375 -6.78125 C 5.5 -6.625 5.617188 -6.40625 5.703125 -6.125 C 5.785156 -5.851562 5.832031 -5.632812 5.84375 -5.46875 C 5.851562 -5.3125 5.859375 -5.101562 5.859375 -4.84375 Z M 5.859375 -2.125 "/></g></g></g><g fill="#ffffff" fill-opacity="1"><g transform="translate(133.577429, 279.923476)"><g><path d="M 6.765625 -2.140625 C 6.765625 -1.398438 7.035156 -0.816406 7.578125 -0.390625 L 6.765625 0.203125 L 5.46875 -0.953125 C 5.039062 -0.546875 4.65625 -0.253906 4.3125 -0.078125 C 3.96875 0.0976562 3.613281 0.1875 3.25 0.1875 C 2.894531 0.1875 2.578125 0.132812 2.296875 0.03125 C 2.023438 -0.0703125 1.734375 -0.25 1.421875 -0.5 C 1.117188 -0.75 0.875 -1.140625 0.6875 -1.671875 C 0.507812 -2.210938 0.421875 -2.910156 0.421875 -3.765625 C 0.421875 -4.617188 0.671875 -5.4375 1.171875 -6.21875 C 1.679688 -7 2.375 -7.390625 3.25 -7.390625 C 3.914062 -7.390625 4.632812 -7.144531 5.40625 -6.65625 L 5.40625 -10.90625 L 6.765625 -10.90625 Z M 5.40625 -1.609375 L 5.40625 -6.0625 C 4.84375 -6.4375 4.328125 -6.625 3.859375 -6.625 C 3.242188 -6.625 2.75 -6.332031 2.375 -5.75 C 2.007812 -5.175781 1.828125 -4.453125 1.828125 -3.578125 C 1.828125 -2.703125 1.960938 -2 2.234375 -1.46875 C 2.503906 -0.945312 2.835938 -0.632812 3.234375 -0.53125 C 3.609375 -0.5625 3.972656 -0.648438 4.328125 -0.796875 C 4.691406 -0.941406 4.960938 -1.09375 5.140625 -1.25 C 5.316406 -1.40625 5.40625 -1.523438 5.40625 -1.609375 Z M 5.40625 -1.609375 "/></g></g></g><g fill="#ffffff" fill-opacity="1"><g transform="translate(141.562526, 279.923476)"><g><path d="M 4.28125 -7.40625 C 5.21875 -7.40625 5.988281 -7.085938 6.59375 -6.453125 C 7.207031 -5.816406 7.515625 -4.9375 7.515625 -3.8125 C 7.515625 -3.101562 7.390625 -2.476562 7.140625 -1.9375 C 6.898438 -1.394531 6.585938 -0.972656 6.203125 -0.671875 C 5.441406 -0.0976562 4.59375 0.1875 3.65625 0.1875 C 2.726562 0.1875 1.957031 -0.128906 1.34375 -0.765625 C 0.738281 -1.398438 0.4375 -2.28125 0.4375 -3.40625 C 0.4375 -4.113281 0.554688 -4.738281 0.796875 -5.28125 C 1.035156 -5.820312 1.347656 -6.242188 1.734375 -6.546875 C 2.492188 -7.117188 3.34375 -7.40625 4.28125 -7.40625 Z M 3.953125 -0.34375 C 4.421875 -0.34375 4.820312 -0.523438 5.15625 -0.890625 C 5.75 -1.535156 6.046875 -2.382812 6.046875 -3.4375 C 6.046875 -4.5 5.863281 -5.320312 5.5 -5.90625 C 5.144531 -6.5 4.554688 -6.796875 3.734375 -6.796875 C 3.128906 -6.566406 2.671875 -6.15625 2.359375 -5.5625 C 2.046875 -4.96875 1.890625 -4.253906 1.890625 -3.421875 C 1.890625 -2.585938 2.054688 -1.863281 2.390625 -1.25 C 2.734375 -0.644531 3.253906 -0.34375 3.953125 -0.34375 Z M 3.953125 -0.34375 "/></g></g></g><g fill="#ffffff" fill-opacity="1"><g transform="translate(149.547623, 279.923476)"><g><path d="M 2.703125 -6.734375 C 2.421875 -6.734375 2.191406 -6.628906 2.015625 -6.421875 C 1.835938 -6.210938 1.75 -5.976562 1.75 -5.71875 C 1.75 -5.457031 1.875 -5.207031 2.125 -4.96875 C 2.375 -4.726562 2.675781 -4.515625 3.03125 -4.328125 C 3.394531 -4.148438 3.75 -3.957031 4.09375 -3.75 C 4.445312 -3.550781 4.75 -3.289062 5 -2.96875 C 5.25 -2.644531 5.375 -2.289062 5.375 -1.90625 C 5.375 -1.300781 5.132812 -0.800781 4.65625 -0.40625 C 4.175781 -0.0078125 3.523438 0.1875 2.703125 0.1875 C 1.878906 0.1875 1.128906 -0.00390625 0.453125 -0.390625 L 0.453125 -0.984375 C 1.171875 -0.628906 1.820312 -0.453125 2.40625 -0.453125 C 3 -0.453125 3.425781 -0.566406 3.6875 -0.796875 C 3.957031 -1.035156 4.09375 -1.304688 4.09375 -1.609375 C 4.09375 -1.910156 3.972656 -2.179688 3.734375 -2.421875 C 3.492188 -2.660156 3.195312 -2.867188 2.84375 -3.046875 C 2.5 -3.234375 2.15625 -3.425781 1.8125 -3.625 C 1.476562 -3.820312 1.191406 -4.082031 0.953125 -4.40625 C 0.710938 -4.726562 0.59375 -5.113281 0.59375 -5.5625 C 0.59375 -6.019531 0.773438 -6.441406 1.140625 -6.828125 C 1.503906 -7.210938 2.070312 -7.40625 2.84375 -7.40625 C 3.613281 -7.40625 4.347656 -7.269531 5.046875 -7 L 4.890625 -5.9375 C 4.097656 -6.363281 3.367188 -6.628906 2.703125 -6.734375 Z M 2.703125 -6.734375 "/></g></g></g><g fill="#ffffff" fill-opacity="1"><g transform="translate(155.488535, 279.923476)"><g/></g></g><g fill="#ffffff" fill-opacity="1"><g transform="translate(159.481078, 279.923476)"><g><path d="M 1.671875 -3.921875 C 1.671875 -2.773438 1.925781 -1.945312 2.4375 -1.4375 C 2.957031 -0.9375 3.585938 -0.6875 4.328125 -0.6875 C 5.078125 -0.6875 5.765625 -0.832031 6.390625 -1.125 L 6.390625 -0.5625 C 5.515625 -0.0625 4.675781 0.1875 3.875 0.1875 C 2.84375 0.1875 2.007812 -0.125 1.375 -0.75 C 0.738281 -1.375 0.421875 -2.28125 0.421875 -3.46875 C 0.421875 -4.664062 0.769531 -5.617188 1.46875 -6.328125 C 2.175781 -7.046875 3.035156 -7.40625 4.046875 -7.40625 C 4.816406 -7.40625 5.460938 -7.097656 5.984375 -6.484375 C 6.503906 -5.878906 6.765625 -5.023438 6.765625 -3.921875 Z M 3.21875 -6.65625 C 2.851562 -6.476562 2.535156 -6.1875 2.265625 -5.78125 C 2.003906 -5.382812 1.828125 -4.925781 1.734375 -4.40625 L 5.484375 -4.40625 C 5.441406 -4.851562 5.332031 -5.234375 5.15625 -5.546875 C 4.988281 -5.867188 4.78125 -6.109375 4.53125 -6.265625 C 4.09375 -6.523438 3.65625 -6.65625 3.21875 -6.65625 Z M 3.21875 -6.65625 "/></g></g></g><g fill="#ffffff" fill-opacity="1"><g transform="translate(166.971096, 279.923476)"><g/></g></g><g fill="#ffffff" fill-opacity="1"><g transform="translate(170.963639, 279.923476)"><g><path d="M 3 -5.046875 L 3 0 L 1.4375 0 L 1.4375 -10.578125 L 4.890625 -10.578125 C 5.960938 -10.578125 6.84375 -10.335938 7.53125 -9.859375 C 8.21875 -9.378906 8.5625 -8.742188 8.5625 -7.953125 C 8.5625 -7.171875 8.285156 -6.550781 7.734375 -6.09375 C 7.191406 -5.644531 6.453125 -5.335938 5.515625 -5.171875 L 9.78125 0 L 7.9375 0.21875 L 4.234375 -5.046875 Z M 3 -5.53125 L 4.03125 -5.53125 C 5.945312 -5.53125 6.90625 -6.285156 6.90625 -7.796875 C 6.90625 -8.046875 6.835938 -8.332031 6.703125 -8.65625 C 6.460938 -9.320312 5.941406 -9.765625 5.140625 -9.984375 C 4.421875 -9.984375 3.707031 -9.890625 3 -9.703125 Z M 3 -5.53125 "/></g></g></g><g fill="#ffffff" fill-opacity="1"><g transform="translate(181.152614, 279.923476)"><g><path d="M 1.671875 -3.921875 C 1.671875 -2.773438 1.925781 -1.945312 2.4375 -1.4375 C 2.957031 -0.9375 3.585938 -0.6875 4.328125 -0.6875 C 5.078125 -0.6875 5.765625 -0.832031 6.390625 -1.125 L 6.390625 -0.5625 C 5.515625 -0.0625 4.675781 0.1875 3.875 0.1875 C 2.84375 0.1875 2.007812 -0.125 1.375 -0.75 C 0.738281 -1.375 0.421875 -2.28125 0.421875 -3.46875 C 0.421875 -4.664062 0.769531 -5.617188 1.46875 -6.328125 C 2.175781 -7.046875 3.035156 -7.40625 4.046875 -7.40625 C 4.816406 -7.40625 5.460938 -7.097656 5.984375 -6.484375 C 6.503906 -5.878906 6.765625 -5.023438 6.765625 -3.921875 Z M 3.21875 -6.65625 C 2.851562 -6.476562 2.535156 -6.1875 2.265625 -5.78125 C 2.003906 -5.382812 1.828125 -4.925781 1.734375 -4.40625 L 5.484375 -4.40625 C 5.441406 -4.851562 5.332031 -5.234375 5.15625 -5.546875 C 4.988281 -5.867188 4.78125 -6.109375 4.53125 -6.265625 C 4.09375 -6.523438 3.65625 -6.65625 3.21875 -6.65625 Z M 3.21875 -6.65625 "/></g></g></g><g fill="#ffffff" fill-opacity="1"><g transform="translate(188.642632, 279.923476)"><g><path d="M 2.796875 -1.40625 C 2.796875 -1.082031 2.859375 -0.84375 2.984375 -0.6875 C 3.109375 -0.53125 3.320312 -0.453125 3.625 -0.453125 C 3.925781 -0.453125 4.28125 -0.53125 4.6875 -0.6875 L 4.6875 -0.234375 C 4.070312 0.046875 3.519531 0.1875 3.03125 0.1875 C 2.539062 0.1875 2.15625 0.0507812 1.875 -0.21875 C 1.59375 -0.488281 1.453125 -0.910156 1.453125 -1.484375 L 1.453125 -6.640625 L 0.15625 -6.90625 L 0.15625 -7.21875 L 1.453125 -7.21875 L 1.453125 -7.796875 L 2.796875 -8.765625 L 2.796875 -7.21875 L 4.6875 -7.21875 L 4.6875 -6.640625 L 2.796875 -6.640625 Z M 2.796875 -1.40625 "/></g></g></g><g fill="#ffffff" fill-opacity="1"><g transform="translate(193.896826, 279.923476)"><g><path d="M 2.359375 0 L 1.015625 0 L 1.015625 -7.21875 L 1.953125 -7.21875 L 2.3125 -5.875 C 2.53125 -6.25 2.867188 -6.597656 3.328125 -6.921875 C 3.796875 -7.253906 4.273438 -7.457031 4.765625 -7.53125 L 4.921875 -6.4375 C 4.523438 -6.4375 4.078125 -6.3125 3.578125 -6.0625 C 3.085938 -5.820312 2.679688 -5.550781 2.359375 -5.25 Z M 2.359375 0 "/></g></g></g><g fill="#ffffff" fill-opacity="1"><g transform="translate(198.975341, 279.923476)"><g><path d="M 4.546875 -1.6875 L 4.546875 -3.34375 C 3.785156 -3.28125 3.160156 -3.101562 2.671875 -2.8125 C 2.179688 -2.53125 1.9375 -2.222656 1.9375 -1.890625 C 1.9375 -1.566406 2.019531 -1.285156 2.1875 -1.046875 C 2.351562 -0.804688 2.570312 -0.640625 2.84375 -0.546875 C 3.195312 -0.609375 3.566406 -0.78125 3.953125 -1.0625 C 4.347656 -1.351562 4.546875 -1.5625 4.546875 -1.6875 Z M 5.859375 -2.125 C 5.859375 -1.363281 6.132812 -0.789062 6.6875 -0.40625 L 5.859375 0.203125 L 4.5625 -0.953125 C 3.726562 -0.191406 2.953125 0.1875 2.234375 0.1875 C 1.765625 0.1875 1.363281 0.0390625 1.03125 -0.25 C 0.695312 -0.550781 0.53125 -0.925781 0.53125 -1.375 C 0.53125 -1.832031 0.664062 -2.207031 0.9375 -2.5 C 1.207031 -2.800781 1.566406 -3.03125 2.015625 -3.1875 C 2.773438 -3.476562 3.617188 -3.660156 4.546875 -3.734375 L 4.546875 -5.234375 C 4.546875 -6.117188 4.035156 -6.5625 3.015625 -6.5625 C 2.429688 -6.5625 1.738281 -6.4375 0.9375 -6.1875 L 0.796875 -6.578125 C 1.015625 -6.742188 1.382812 -6.921875 1.90625 -7.109375 C 2.4375 -7.304688 2.941406 -7.40625 3.421875 -7.40625 C 3.898438 -7.40625 4.300781 -7.34375 4.625 -7.21875 C 4.945312 -7.09375 5.1875 -6.945312 5.34375 -6.78125 C 5.5 -6.625 5.617188 -6.40625 5.703125 -6.125 C 5.785156 -5.851562 5.832031 -5.632812 5.84375 -5.46875 C 5.851562 -5.3125 5.859375 -5.101562 5.859375 -4.84375 Z M 3.015625 -8.09375 L 2.375 -8.09375 L 5.125 -11.09375 L 6.015625 -10.296875 Z M 3.015625 -8.09375 "/></g></g></g><g fill="#ffffff" fill-opacity="1"><g transform="translate(206.066105, 279.923476)"><g><path d="M 2.796875 -1.40625 C 2.796875 -1.082031 2.859375 -0.84375 2.984375 -0.6875 C 3.109375 -0.53125 3.320312 -0.453125 3.625 -0.453125 C 3.925781 -0.453125 4.28125 -0.53125 4.6875 -0.6875 L 4.6875 -0.234375 C 4.070312 0.046875 3.519531 0.1875 3.03125 0.1875 C 2.539062 0.1875 2.15625 0.0507812 1.875 -0.21875 C 1.59375 -0.488281 1.453125 -0.910156 1.453125 -1.484375 L 1.453125 -6.640625 L 0.15625 -6.90625 L 0.15625 -7.21875 L 1.453125 -7.21875 L 1.453125 -7.796875 L 2.796875 -8.765625 L 2.796875 -7.21875 L 4.6875 -7.21875 L 4.6875 -6.640625 L 2.796875 -6.640625 Z M 2.796875 -1.40625 "/></g></g></g><g fill="#ffffff" fill-opacity="1"><g transform="translate(211.320299, 279.923476)"><g><path d="M 1.671875 -3.921875 C 1.671875 -2.773438 1.925781 -1.945312 2.4375 -1.4375 C 2.957031 -0.9375 3.585938 -0.6875 4.328125 -0.6875 C 5.078125 -0.6875 5.765625 -0.832031 6.390625 -1.125 L 6.390625 -0.5625 C 5.515625 -0.0625 4.675781 0.1875 3.875 0.1875 C 2.84375 0.1875 2.007812 -0.125 1.375 -0.75 C 0.738281 -1.375 0.421875 -2.28125 0.421875 -3.46875 C 0.421875 -4.664062 0.769531 -5.617188 1.46875 -6.328125 C 2.175781 -7.046875 3.035156 -7.40625 4.046875 -7.40625 C 4.816406 -7.40625 5.460938 -7.097656 5.984375 -6.484375 C 6.503906 -5.878906 6.765625 -5.023438 6.765625 -3.921875 Z M 3.21875 -6.65625 C 2.851562 -6.476562 2.535156 -6.1875 2.265625 -5.78125 C 2.003906 -5.382812 1.828125 -4.925781 1.734375 -4.40625 L 5.484375 -4.40625 C 5.441406 -4.851562 5.332031 -5.234375 5.15625 -5.546875 C 4.988281 -5.867188 4.78125 -6.109375 4.53125 -6.265625 C 4.09375 -6.523438 3.65625 -6.65625 3.21875 -6.65625 Z M 3.21875 -6.65625 "/></g></g></g><g fill="#ffffff" fill-opacity="1"><g transform="translate(218.810317, 279.923476)"><g><path d="M 1.203125 0 L 1.203125 -7.21875 L 2.515625 -7.21875 L 2.515625 0 Z M 1.03125 -9.4375 C 1.03125 -9.664062 1.109375 -9.859375 1.265625 -10.015625 C 1.421875 -10.179688 1.613281 -10.265625 1.84375 -10.265625 C 2.070312 -10.265625 2.269531 -10.179688 2.4375 -10.015625 C 2.601562 -9.859375 2.6875 -9.671875 2.6875 -9.453125 C 2.6875 -9.234375 2.601562 -9.035156 2.4375 -8.859375 C 2.269531 -8.691406 2.070312 -8.609375 1.84375 -8.609375 C 1.625 -8.609375 1.429688 -8.691406 1.265625 -8.859375 C 1.109375 -9.023438 1.03125 -9.21875 1.03125 -9.4375 Z M 1.03125 -9.4375 "/></g></g></g><g fill="#ffffff" fill-opacity="1"><g transform="translate(222.531367, 279.923476)"><g><path d="M 2.703125 -6.734375 C 2.421875 -6.734375 2.191406 -6.628906 2.015625 -6.421875 C 1.835938 -6.210938 1.75 -5.976562 1.75 -5.71875 C 1.75 -5.457031 1.875 -5.207031 2.125 -4.96875 C 2.375 -4.726562 2.675781 -4.515625 3.03125 -4.328125 C 3.394531 -4.148438 3.75 -3.957031 4.09375 -3.75 C 4.445312 -3.550781 4.75 -3.289062 5 -2.96875 C 5.25 -2.644531 5.375 -2.289062 5.375 -1.90625 C 5.375 -1.300781 5.132812 -0.800781 4.65625 -0.40625 C 4.175781 -0.0078125 3.523438 0.1875 2.703125 0.1875 C 1.878906 0.1875 1.128906 -0.00390625 0.453125 -0.390625 L 0.453125 -0.984375 C 1.171875 -0.628906 1.820312 -0.453125 2.40625 -0.453125 C 3 -0.453125 3.425781 -0.566406 3.6875 -0.796875 C 3.957031 -1.035156 4.09375 -1.304688 4.09375 -1.609375 C 4.09375 -1.910156 3.972656 -2.179688 3.734375 -2.421875 C 3.492188 -2.660156 3.195312 -2.867188 2.84375 -3.046875 C 2.5 -3.234375 2.15625 -3.425781 1.8125 -3.625 C 1.476562 -3.820312 1.191406 -4.082031 0.953125 -4.40625 C 0.710938 -4.726562 0.59375 -5.113281 0.59375 -5.5625 C 0.59375 -6.019531 0.773438 -6.441406 1.140625 -6.828125 C 1.503906 -7.210938 2.070312 -7.40625 2.84375 -7.40625 C 3.613281 -7.40625 4.347656 -7.269531 5.046875 -7 L 4.890625 -5.9375 C 4.097656 -6.363281 3.367188 -6.628906 2.703125 -6.734375 Z M 2.703125 -6.734375 "/></g></g></g></svg>